<?xml version="1.0" encoding="utf-8" standalone="no"?>
<!DOCTYPE svg PUBLIC "-//W3C//DTD SVG 1.1//EN"
  "http://www.w3.org/Graphics/SVG/1.1/DTD/svg11.dtd">
<svg xmlns:xlink="http://www.w3.org/1999/xlink" width="540pt" height="360pt" viewBox="0 0 540 360" xmlns="http://www.w3.org/2000/svg" version="1.1">
 <metadata>
  <rdf:RDF xmlns:dc="http://purl.org/dc/elements/1.1/" xmlns:cc="http://creativecommons.org/ns#" xmlns:rdf="http://www.w3.org/1999/02/22-rdf-syntax-ns#">
   <cc:Work>
    <dc:type rdf:resource="http://purl.org/dc/dcmitype/StillImage"/>
    <dc:date>2026-08-21T22:11:03.778276</dc:date>
    <dc:format>image/svg+xml</dc:format>
    <dc:creator>
     <cc:Agent>
      <dc:title>Matplotlib v3.10.7, https://matplotlib.org/</dc:title>
     </cc:Agent>
    </dc:creator>
   </cc:Work>
  </rdf:RDF>
 </metadata>
 <defs>
  <style type="text/css">*{stroke-linejoin: round; stroke-linecap: butt}</style>
 </defs>
 <g id="figure_1">
  <g id="patch_1">
   <path d="M 0 360 
L 540 360 
L 540 0 
L 0 0 
z
" style="fill: #ffffff"/>
  </g>
  <g id="axes_1">
   <g id="patch_2">
    <path d="M 80.1 297.88 
L 463.41 297.88 
L 463.41 10.8 
L 80.1 10.8 
z
" style="fill: #ffffff"/>
   </g>
   <g id="matplotlib.axis_1">
    <g id="xtick_1">
     <g id="line2d_1">
      <defs>
       <path id="m94ae250b00" d="M 0 0 
L 0 3.5 
" style="stroke: #000000; stroke-width: 0.8"/>
      </defs>
      <g>
       <use xlink:href="#m94ae250b00" x="97.523182" y="297.88" style="stroke: #000000; stroke-width: 0.8"/>
      </g>
     </g>
     <g id="text_1">
      <!-- 0.0 -->
      <g transform="translate(83.462244 320.076875) scale(0.2 -0.2)">
       <defs>
        <path id="OpenSans-Regular-30" d="M 3334 2291 
Q 3334 1734 3250 1296 
Q 3166 859 2984 556 
Q 2803 253 2515 95 
Q 2228 -63 1825 -63 
Q 1316 -63 983 215 
Q 650 494 486 1020 
Q 322 1547 322 2291 
Q 322 3022 470 3548 
Q 619 4075 950 4358 
Q 1281 4641 1825 4641 
Q 2341 4641 2675 4361 
Q 3009 4081 3171 3554 
Q 3334 3028 3334 2291 
z
M 844 2291 
Q 844 1653 941 1228 
Q 1038 803 1255 592 
Q 1472 381 1825 381 
Q 2178 381 2395 590 
Q 2613 800 2711 1225 
Q 2809 1650 2809 2291 
Q 2809 2919 2712 3342 
Q 2616 3766 2400 3980 
Q 2184 4194 1825 4194 
Q 1466 4194 1250 3980 
Q 1034 3766 939 3342 
Q 844 2919 844 2291 
z
" transform="scale(0.015625)"/>
        <path id="OpenSans-Regular-2e" d="M 469 325 
Q 469 544 575 636 
Q 681 728 834 728 
Q 994 728 1103 636 
Q 1213 544 1213 325 
Q 1213 109 1103 10 
Q 994 -88 834 -88 
Q 681 -88 575 10 
Q 469 109 469 325 
z
" transform="scale(0.015625)"/>
       </defs>
       <use xlink:href="#OpenSans-Regular-30"/>
       <use xlink:href="#OpenSans-Regular-2e" transform="translate(57.177734 0)"/>
       <use xlink:href="#OpenSans-Regular-30" transform="translate(83.447266 0)"/>
      </g>
     </g>
    </g>
    <g id="xtick_2">
     <g id="line2d_2">
      <g>
       <use xlink:href="#m94ae250b00" x="167.215909" y="297.88" style="stroke: #000000; stroke-width: 0.8"/>
      </g>
     </g>
     <g id="text_2">
      <!-- 0.2 -->
      <g transform="translate(153.154972 320.076875) scale(0.2 -0.2)">
       <defs>
        <path id="OpenSans-Regular-32" d="M 3309 0 
L 316 0 
L 316 434 
L 1538 1675 
Q 1878 2019 2111 2287 
Q 2344 2556 2466 2817 
Q 2588 3078 2588 3391 
Q 2588 3778 2358 3983 
Q 2128 4188 1753 4188 
Q 1425 4188 1172 4075 
Q 919 3963 653 3756 
L 375 4106 
Q 556 4259 770 4378 
Q 984 4497 1229 4565 
Q 1475 4634 1753 4634 
Q 2175 4634 2481 4487 
Q 2788 4341 2955 4069 
Q 3122 3797 3122 3422 
Q 3122 3059 2978 2748 
Q 2834 2438 2575 2133 
Q 2316 1828 1969 1488 
L 975 497 
L 975 475 
L 3309 475 
L 3309 0 
z
" transform="scale(0.015625)"/>
       </defs>
       <use xlink:href="#OpenSans-Regular-30"/>
       <use xlink:href="#OpenSans-Regular-2e" transform="translate(57.177734 0)"/>
       <use xlink:href="#OpenSans-Regular-32" transform="translate(83.447266 0)"/>
      </g>
     </g>
    </g>
    <g id="xtick_3">
     <g id="line2d_3">
      <g>
       <use xlink:href="#m94ae250b00" x="236.908636" y="297.88" style="stroke: #000000; stroke-width: 0.8"/>
      </g>
     </g>
     <g id="text_3">
      <!-- 0.4 -->
      <g transform="translate(222.847699 320.076875) scale(0.2 -0.2)">
       <defs>
        <path id="OpenSans-Regular-34" d="M 3538 1059 
L 2853 1059 
L 2853 0 
L 2347 0 
L 2347 1059 
L 138 1059 
L 138 1497 
L 2313 4594 
L 2853 4594 
L 2853 1528 
L 3538 1528 
L 3538 1059 
z
M 2347 1528 
L 2347 3022 
Q 2347 3194 2350 3333 
Q 2353 3472 2359 3592 
Q 2366 3713 2370 3822 
Q 2375 3931 2378 4038 
L 2353 4038 
Q 2294 3913 2217 3773 
Q 2141 3634 2063 3525 
L 653 1528 
L 2347 1528 
z
" transform="scale(0.015625)"/>
       </defs>
       <use xlink:href="#OpenSans-Regular-30"/>
       <use xlink:href="#OpenSans-Regular-2e" transform="translate(57.177734 0)"/>
       <use xlink:href="#OpenSans-Regular-34" transform="translate(83.447266 0)"/>
      </g>
     </g>
    </g>
    <g id="xtick_4">
     <g id="line2d_4">
      <g>
       <use xlink:href="#m94ae250b00" x="306.601364" y="297.88" style="stroke: #000000; stroke-width: 0.8"/>
      </g>
     </g>
     <g id="text_4">
      <!-- 0.6 -->
      <g transform="translate(292.540426 320.076875) scale(0.2 -0.2)">
       <defs>
        <path id="OpenSans-Regular-36" d="M 363 1953 
Q 363 2366 420 2759 
Q 478 3153 615 3492 
Q 753 3831 990 4087 
Q 1228 4344 1583 4489 
Q 1938 4634 2434 4634 
Q 2575 4634 2737 4620 
Q 2900 4606 3006 4575 
L 3006 4128 
Q 2891 4169 2742 4187 
Q 2594 4206 2444 4206 
Q 1863 4206 1530 3953 
Q 1197 3700 1050 3267 
Q 903 2834 881 2294 
L 916 2294 
Q 1013 2450 1163 2576 
Q 1313 2703 1527 2778 
Q 1741 2853 2025 2853 
Q 2425 2853 2723 2690 
Q 3022 2528 3186 2218 
Q 3350 1909 3350 1469 
Q 3350 997 3175 653 
Q 3000 309 2676 123 
Q 2353 -63 1906 -63 
Q 1572 -63 1290 65 
Q 1009 194 801 447 
Q 594 700 478 1076 
Q 363 1453 363 1953 
z
M 1900 375 
Q 2325 375 2581 647 
Q 2838 919 2838 1469 
Q 2838 1919 2609 2181 
Q 2381 2444 1922 2444 
Q 1609 2444 1378 2314 
Q 1147 2184 1019 1987 
Q 891 1791 891 1588 
Q 891 1381 952 1168 
Q 1013 956 1138 775 
Q 1263 594 1453 484 
Q 1644 375 1900 375 
z
" transform="scale(0.015625)"/>
       </defs>
       <use xlink:href="#OpenSans-Regular-30"/>
       <use xlink:href="#OpenSans-Regular-2e" transform="translate(57.177734 0)"/>
       <use xlink:href="#OpenSans-Regular-36" transform="translate(83.447266 0)"/>
      </g>
     </g>
    </g>
    <g id="xtick_5">
     <g id="line2d_5">
      <g>
       <use xlink:href="#m94ae250b00" x="376.294091" y="297.88" style="stroke: #000000; stroke-width: 0.8"/>
      </g>
     </g>
     <g id="text_5">
      <!-- 0.8 -->
      <g transform="translate(362.233153 320.076875) scale(0.2 -0.2)">
       <defs>
        <path id="OpenSans-Regular-38" d="M 1825 4634 
Q 2222 4634 2528 4509 
Q 2834 4384 3007 4142 
Q 3181 3900 3181 3547 
Q 3181 3269 3061 3061 
Q 2941 2853 2737 2698 
Q 2534 2544 2288 2422 
Q 2581 2288 2817 2119 
Q 3053 1950 3190 1722 
Q 3328 1494 3328 1181 
Q 3328 797 3142 517 
Q 2956 238 2622 87 
Q 2288 -63 1838 -63 
Q 1353 -63 1014 82 
Q 675 228 498 501 
Q 322 775 322 1159 
Q 322 1475 456 1708 
Q 591 1941 812 2109 
Q 1034 2278 1297 2394 
Q 1069 2519 880 2678 
Q 691 2838 580 3052 
Q 469 3266 469 3550 
Q 469 3897 645 4139 
Q 822 4381 1130 4507 
Q 1438 4634 1825 4634 
z
M 831 1156 
Q 831 806 1078 579 
Q 1325 353 1825 353 
Q 2300 353 2559 579 
Q 2819 806 2819 1175 
Q 2819 1403 2700 1576 
Q 2581 1750 2362 1887 
Q 2144 2025 1847 2138 
L 1734 2178 
Q 1447 2059 1245 1914 
Q 1044 1769 937 1584 
Q 831 1400 831 1156 
z
M 1819 4209 
Q 1450 4209 1215 4032 
Q 981 3856 981 3525 
Q 981 3288 1095 3123 
Q 1209 2959 1406 2842 
Q 1603 2725 1847 2625 
Q 2084 2725 2268 2845 
Q 2453 2966 2559 3131 
Q 2666 3297 2666 3528 
Q 2666 3859 2433 4034 
Q 2200 4209 1819 4209 
z
" transform="scale(0.015625)"/>
       </defs>
       <use xlink:href="#OpenSans-Regular-30"/>
       <use xlink:href="#OpenSans-Regular-2e" transform="translate(57.177734 0)"/>
       <use xlink:href="#OpenSans-Regular-38" transform="translate(83.447266 0)"/>
      </g>
     </g>
    </g>
    <g id="xtick_6">
     <g id="line2d_6">
      <g>
       <use xlink:href="#m94ae250b00" x="445.986818" y="297.88" style="stroke: #000000; stroke-width: 0.8"/>
      </g>
     </g>
     <g id="text_6">
      <!-- 1.0 -->
      <g transform="translate(431.925881 320.076875) scale(0.2 -0.2)">
       <defs>
        <path id="OpenSans-Regular-31" d="M 2247 0 
L 1741 0 
L 1741 3238 
Q 1741 3422 1742 3555 
Q 1744 3688 1748 3798 
Q 1753 3909 1763 4025 
Q 1666 3925 1581 3854 
Q 1497 3784 1372 3681 
L 850 3263 
L 578 3616 
L 1816 4569 
L 2247 4569 
L 2247 0 
z
" transform="scale(0.015625)"/>
       </defs>
       <use xlink:href="#OpenSans-Regular-31"/>
       <use xlink:href="#OpenSans-Regular-2e" transform="translate(57.177734 0)"/>
       <use xlink:href="#OpenSans-Regular-30" transform="translate(83.447266 0)"/>
      </g>
     </g>
    </g>
    <g id="text_7">
     <!-- $\text{x}^\prime$ -->
     <g transform="translate(263.455 344.058125) scale(0.2 -0.2)">
      <defs>
       <path id="DejaVuSans-78" d="M 3513 3500 
L 2247 1797 
L 3578 0 
L 2900 0 
L 1881 1375 
L 863 0 
L 184 0 
L 1544 1831 
L 300 3500 
L 978 3500 
L 1906 2253 
L 2834 3500 
L 3513 3500 
z
" transform="scale(0.015625)"/>
       <path id="Cmsy10-30" d="M 225 347 
Q 184 359 184 409 
L 966 3316 
Q 1003 3434 1093 3506 
Q 1184 3578 1300 3578 
Q 1450 3578 1564 3479 
Q 1678 3381 1678 3231 
Q 1678 3166 1644 3084 
L 488 319 
Q 466 275 428 275 
Q 394 275 320 306 
Q 247 338 225 347 
z
" transform="scale(0.015625)"/>
      </defs>
      <use xlink:href="#DejaVuSans-78" transform="translate(0 0.584375)"/>
      <use xlink:href="#Cmsy10-30" transform="translate(60.136719 38.865625) scale(0.7)"/>
     </g>
    </g>
   </g>
   <g id="matplotlib.axis_2">
    <g id="ytick_1">
     <g id="line2d_7">
      <defs>
       <path id="m522748cbcc" d="M 0 0 
L -3.5 0 
" style="stroke: #000000; stroke-width: 0.8"/>
      </defs>
      <g>
       <use xlink:href="#m522748cbcc" x="80.1" y="284.844165" style="stroke: #000000; stroke-width: 0.8"/>
      </g>
     </g>
     <g id="text_8">
      <!-- 0.0 -->
      <g transform="translate(44.978125 292.442603) scale(0.2 -0.2)">
       <use xlink:href="#OpenSans-Regular-30"/>
       <use xlink:href="#OpenSans-Regular-2e" transform="translate(57.177734 0)"/>
       <use xlink:href="#OpenSans-Regular-30" transform="translate(83.447266 0)"/>
      </g>
     </g>
    </g>
    <g id="ytick_2">
     <g id="line2d_8">
      <g>
       <use xlink:href="#m522748cbcc" x="80.1" y="220.810835" style="stroke: #000000; stroke-width: 0.8"/>
      </g>
     </g>
     <g id="text_9">
      <!-- 0.5 -->
      <g transform="translate(44.978125 228.409273) scale(0.2 -0.2)">
       <defs>
        <path id="OpenSans-Regular-35" d="M 1759 2794 
Q 2225 2794 2569 2636 
Q 2913 2478 3102 2178 
Q 3291 1878 3291 1450 
Q 3291 981 3087 642 
Q 2884 303 2503 120 
Q 2122 -63 1591 -63 
Q 1234 -63 928 0 
Q 622 63 413 188 
L 413 681 
Q 641 544 966 462 
Q 1291 381 1597 381 
Q 1944 381 2205 492 
Q 2466 603 2611 829 
Q 2756 1056 2756 1400 
Q 2756 1856 2476 2104 
Q 2197 2353 1594 2353 
Q 1400 2353 1169 2322 
Q 938 2291 788 2253 
L 525 2425 
L 700 4569 
L 2972 4569 
L 2972 4094 
L 1144 4094 
L 1028 2716 
Q 1147 2741 1334 2767 
Q 1522 2794 1759 2794 
z
" transform="scale(0.015625)"/>
       </defs>
       <use xlink:href="#OpenSans-Regular-30"/>
       <use xlink:href="#OpenSans-Regular-2e" transform="translate(57.177734 0)"/>
       <use xlink:href="#OpenSans-Regular-35" transform="translate(83.447266 0)"/>
      </g>
     </g>
    </g>
    <g id="ytick_3">
     <g id="line2d_9">
      <g>
       <use xlink:href="#m522748cbcc" x="80.1" y="156.777505" style="stroke: #000000; stroke-width: 0.8"/>
      </g>
     </g>
     <g id="text_10">
      <!-- 1.0 -->
      <g transform="translate(44.978125 164.375942) scale(0.2 -0.2)">
       <use xlink:href="#OpenSans-Regular-31"/>
       <use xlink:href="#OpenSans-Regular-2e" transform="translate(57.177734 0)"/>
       <use xlink:href="#OpenSans-Regular-30" transform="translate(83.447266 0)"/>
      </g>
     </g>
    </g>
    <g id="ytick_4">
     <g id="line2d_10">
      <g>
       <use xlink:href="#m522748cbcc" x="80.1" y="92.744175" style="stroke: #000000; stroke-width: 0.8"/>
      </g>
     </g>
     <g id="text_11">
      <!-- 1.5 -->
      <g transform="translate(44.978125 100.342612) scale(0.2 -0.2)">
       <use xlink:href="#OpenSans-Regular-31"/>
       <use xlink:href="#OpenSans-Regular-2e" transform="translate(57.177734 0)"/>
       <use xlink:href="#OpenSans-Regular-35" transform="translate(83.447266 0)"/>
      </g>
     </g>
    </g>
    <g id="ytick_5">
     <g id="line2d_11">
      <g>
       <use xlink:href="#m522748cbcc" x="80.1" y="28.710845" style="stroke: #000000; stroke-width: 0.8"/>
      </g>
     </g>
     <g id="text_12">
      <!-- 2.0 -->
      <g transform="translate(44.978125 36.309282) scale(0.2 -0.2)">
       <use xlink:href="#OpenSans-Regular-32"/>
       <use xlink:href="#OpenSans-Regular-2e" transform="translate(57.177734 0)"/>
       <use xlink:href="#OpenSans-Regular-30" transform="translate(83.447266 0)"/>
      </g>
     </g>
    </g>
    <g id="text_13">
     <!-- Cumulative sum of $|\hat{\text{M}}-\text{M}|$ -->
     <g transform="translate(36.178125 280.64) rotate(-90) scale(0.2 -0.2)">
      <defs>
       <path id="OpenSans-Regular-43" d="M 2578 4166 
Q 2200 4166 1898 4036 
Q 1597 3906 1386 3661 
Q 1175 3416 1062 3069 
Q 950 2722 950 2288 
Q 950 1713 1129 1289 
Q 1309 866 1667 634 
Q 2025 403 2563 403 
Q 2869 403 3139 454 
Q 3409 506 3666 584 
L 3666 122 
Q 3416 28 3141 -17 
Q 2866 -63 2488 -63 
Q 1791 -63 1323 226 
Q 856 516 623 1044 
Q 391 1572 391 2291 
Q 391 2809 536 3239 
Q 681 3669 961 3981 
Q 1241 4294 1648 4464 
Q 2056 4634 2584 4634 
Q 2931 4634 3253 4565 
Q 3575 4497 3834 4369 
L 3622 3919 
Q 3403 4019 3142 4092 
Q 2881 4166 2578 4166 
z
" transform="scale(0.015625)"/>
       <path id="OpenSans-Regular-75" d="M 3375 3425 
L 3375 0 
L 2950 0 
L 2875 481 
L 2847 481 
Q 2741 303 2572 181 
Q 2403 59 2192 -2 
Q 1981 -63 1744 -63 
Q 1338 -63 1063 68 
Q 788 200 648 475 
Q 509 750 509 1181 
L 509 3425 
L 1034 3425 
L 1034 1219 
Q 1034 791 1228 580 
Q 1422 369 1819 369 
Q 2200 369 2426 512 
Q 2653 656 2753 936 
Q 2853 1216 2853 1622 
L 2853 3425 
L 3375 3425 
z
" transform="scale(0.015625)"/>
       <path id="OpenSans-Regular-6d" d="M 4266 3488 
Q 4831 3488 5118 3192 
Q 5406 2897 5406 2244 
L 5406 0 
L 4894 0 
L 4894 2219 
Q 4894 2634 4714 2842 
Q 4534 3050 4181 3050 
Q 3684 3050 3459 2762 
Q 3234 2475 3234 1916 
L 3234 0 
L 2719 0 
L 2719 2219 
Q 2719 2497 2639 2681 
Q 2559 2866 2401 2958 
Q 2244 3050 2003 3050 
Q 1663 3050 1456 2909 
Q 1250 2769 1158 2492 
Q 1066 2216 1066 1813 
L 1066 0 
L 547 0 
L 547 3425 
L 966 3425 
L 1044 2941 
L 1072 2941 
Q 1175 3119 1331 3241 
Q 1488 3363 1681 3425 
Q 1875 3488 2094 3488 
Q 2484 3488 2748 3342 
Q 3013 3197 3131 2900 
L 3159 2900 
Q 3328 3197 3622 3342 
Q 3916 3488 4266 3488 
z
" transform="scale(0.015625)"/>
       <path id="OpenSans-Regular-6c" d="M 1069 0 
L 547 0 
L 547 4863 
L 1069 4863 
L 1069 0 
z
" transform="scale(0.015625)"/>
       <path id="OpenSans-Regular-61" d="M 1828 3481 
Q 2441 3481 2737 3206 
Q 3034 2931 3034 2328 
L 3034 0 
L 2656 0 
L 2556 506 
L 2531 506 
Q 2388 319 2231 192 
Q 2075 66 1870 1 
Q 1666 -63 1369 -63 
Q 1056 -63 814 46 
Q 572 156 433 378 
Q 294 600 294 941 
Q 294 1453 700 1728 
Q 1106 2003 1938 2028 
L 2528 2053 
L 2528 2263 
Q 2528 2706 2337 2884 
Q 2147 3063 1800 3063 
Q 1531 3063 1287 2984 
Q 1044 2906 825 2800 
L 666 3194 
Q 897 3313 1197 3397 
Q 1497 3481 1828 3481 
z
M 2522 1688 
L 2000 1666 
Q 1359 1641 1096 1456 
Q 834 1272 834 934 
Q 834 641 1012 500 
Q 1191 359 1484 359 
Q 1941 359 2231 612 
Q 2522 866 2522 1372 
L 2522 1688 
z
" transform="scale(0.015625)"/>
       <path id="OpenSans-Regular-74" d="M 1653 363 
Q 1781 363 1915 384 
Q 2050 406 2134 438 
L 2134 34 
Q 2044 -6 1883 -34 
Q 1722 -63 1569 -63 
Q 1297 -63 1075 32 
Q 853 128 720 356 
Q 588 584 588 988 
L 588 3019 
L 100 3019 
L 100 3272 
L 591 3475 
L 797 4219 
L 1109 4219 
L 1109 3425 
L 2113 3425 
L 2113 3019 
L 1109 3019 
L 1109 1003 
Q 1109 681 1257 522 
Q 1406 363 1653 363 
z
" transform="scale(0.015625)"/>
       <path id="OpenSans-Regular-69" d="M 1066 3425 
L 1066 0 
L 547 0 
L 547 3425 
L 1066 3425 
z
M 813 4706 
Q 941 4706 1033 4623 
Q 1125 4541 1125 4366 
Q 1125 4194 1033 4109 
Q 941 4025 813 4025 
Q 678 4025 589 4109 
Q 500 4194 500 4366 
Q 500 4541 589 4623 
Q 678 4706 813 4706 
z
" transform="scale(0.015625)"/>
       <path id="OpenSans-Regular-76" d="M 1300 0 
L 0 3425 
L 556 3425 
L 1309 1353 
Q 1388 1141 1469 884 
Q 1550 628 1581 472 
L 1603 472 
Q 1641 628 1728 886 
Q 1816 1144 1888 1353 
L 2641 3425 
L 3197 3425 
L 1894 0 
L 1300 0 
z
" transform="scale(0.015625)"/>
       <path id="OpenSans-Regular-65" d="M 1866 3488 
Q 2303 3488 2615 3294 
Q 2928 3100 3093 2751 
Q 3259 2403 3259 1938 
L 3259 1616 
L 894 1616 
Q 903 1013 1193 697 
Q 1484 381 2013 381 
Q 2338 381 2588 440 
Q 2838 500 3106 616 
L 3106 159 
Q 2847 44 2592 -9 
Q 2338 -63 1991 -63 
Q 1497 -63 1130 139 
Q 763 341 559 731 
Q 356 1122 356 1688 
Q 356 2241 542 2645 
Q 728 3050 1067 3269 
Q 1406 3488 1866 3488 
z
M 1859 3063 
Q 1444 3063 1197 2791 
Q 950 2519 903 2031 
L 2716 2031 
Q 2713 2338 2620 2570 
Q 2528 2803 2340 2933 
Q 2153 3063 1859 3063 
z
" transform="scale(0.015625)"/>
       <path id="OpenSans-Regular-20" transform="scale(0.015625)"/>
       <path id="OpenSans-Regular-73" d="M 2763 938 
Q 2763 609 2598 386 
Q 2434 163 2129 50 
Q 1825 -63 1403 -63 
Q 1044 -63 781 -6 
Q 519 50 322 153 
L 322 631 
Q 531 528 822 443 
Q 1113 359 1416 359 
Q 1859 359 2059 503 
Q 2259 647 2259 894 
Q 2259 1034 2179 1142 
Q 2100 1250 1912 1351 
Q 1725 1453 1394 1575 
Q 1066 1700 827 1823 
Q 588 1947 458 2125 
Q 328 2303 328 2588 
Q 328 3022 679 3255 
Q 1031 3488 1603 3488 
Q 1913 3488 2183 3427 
Q 2453 3366 2688 3263 
L 2513 2847 
Q 2300 2938 2059 3000 
Q 1819 3063 1569 3063 
Q 1209 3063 1017 2944 
Q 825 2825 825 2619 
Q 825 2459 914 2356 
Q 1003 2253 1200 2162 
Q 1397 2072 1719 1950 
Q 2041 1831 2275 1704 
Q 2509 1578 2636 1398 
Q 2763 1219 2763 938 
z
" transform="scale(0.015625)"/>
       <path id="OpenSans-Regular-6f" d="M 3500 1719 
Q 3500 1297 3390 965 
Q 3281 634 3075 406 
Q 2869 178 2576 57 
Q 2284 -63 1916 -63 
Q 1572 -63 1286 57 
Q 1000 178 792 406 
Q 584 634 470 965 
Q 356 1297 356 1719 
Q 356 2281 547 2676 
Q 738 3072 1092 3280 
Q 1447 3488 1938 3488 
Q 2406 3488 2757 3278 
Q 3109 3069 3304 2673 
Q 3500 2278 3500 1719 
z
M 894 1719 
Q 894 1306 1003 1003 
Q 1113 700 1341 534 
Q 1569 369 1928 369 
Q 2284 369 2514 534 
Q 2744 700 2853 1003 
Q 2963 1306 2963 1719 
Q 2963 2128 2853 2426 
Q 2744 2725 2516 2887 
Q 2288 3050 1925 3050 
Q 1391 3050 1142 2697 
Q 894 2344 894 1719 
z
" transform="scale(0.015625)"/>
       <path id="OpenSans-Regular-66" d="M 2072 3019 
L 1219 3019 
L 1219 0 
L 700 0 
L 700 3019 
L 94 3019 
L 94 3269 
L 700 3441 
L 700 3669 
Q 700 4100 828 4370 
Q 956 4641 1200 4769 
Q 1444 4897 1794 4897 
Q 1991 4897 2155 4862 
Q 2319 4828 2444 4784 
L 2309 4375 
Q 2203 4409 2070 4439 
Q 1938 4469 1800 4469 
Q 1503 4469 1361 4276 
Q 1219 4084 1219 3675 
L 1219 3425 
L 2072 3425 
L 2072 3019 
z
" transform="scale(0.015625)"/>
       <path id="DejaVuSans-7c" d="M 1344 4891 
L 1344 -1509 
L 813 -1509 
L 813 4891 
L 1344 4891 
z
" transform="scale(0.015625)"/>
       <path id="DejaVuSans-302" d="M -1831 5119 
L -1369 5119 
L -603 3944 
L -1038 3944 
L -1600 4709 
L -2163 3944 
L -2597 3944 
L -1831 5119 
z
M -1600 3584 
L -1600 3584 
z
" transform="scale(0.015625)"/>
       <path id="DejaVuSans-4d" d="M 628 4666 
L 1569 4666 
L 2759 1491 
L 3956 4666 
L 4897 4666 
L 4897 0 
L 4281 0 
L 4281 4097 
L 3078 897 
L 2444 897 
L 1241 4097 
L 1241 0 
L 628 0 
L 628 4666 
z
" transform="scale(0.015625)"/>
       <path id="DejaVuSans-2212" d="M 678 2272 
L 4684 2272 
L 4684 1741 
L 678 1741 
L 678 2272 
z
" transform="scale(0.015625)"/>
      </defs>
      <use xlink:href="#OpenSans-Regular-43" transform="translate(0 0.609375)"/>
      <use xlink:href="#OpenSans-Regular-75" transform="translate(62.988281 0.609375)"/>
      <use xlink:href="#OpenSans-Regular-6d" transform="translate(124.316406 0.609375)"/>
      <use xlink:href="#OpenSans-Regular-75" transform="translate(216.894531 0.609375)"/>
      <use xlink:href="#OpenSans-Regular-6c" transform="translate(278.222656 0.609375)"/>
      <use xlink:href="#OpenSans-Regular-61" transform="translate(303.466797 0.609375)"/>
      <use xlink:href="#OpenSans-Regular-74" transform="translate(359.033203 0.609375)"/>
      <use xlink:href="#OpenSans-Regular-69" transform="translate(394.677734 0.609375)"/>
      <use xlink:href="#OpenSans-Regular-76" transform="translate(419.921875 0.609375)"/>
      <use xlink:href="#OpenSans-Regular-65" transform="translate(469.873047 0.609375)"/>
      <use xlink:href="#OpenSans-Regular-20" transform="translate(526.025391 0.609375)"/>
      <use xlink:href="#OpenSans-Regular-73" transform="translate(552.001953 0.609375)"/>
      <use xlink:href="#OpenSans-Regular-75" transform="translate(599.658203 0.609375)"/>
      <use xlink:href="#OpenSans-Regular-6d" transform="translate(660.986328 0.609375)"/>
      <use xlink:href="#OpenSans-Regular-20" transform="translate(753.564453 0.609375)"/>
      <use xlink:href="#OpenSans-Regular-6f" transform="translate(779.541016 0.609375)"/>
      <use xlink:href="#OpenSans-Regular-66" transform="translate(839.697266 0.609375)"/>
      <use xlink:href="#OpenSans-Regular-20" transform="translate(873.339844 0.609375)"/>
      <use xlink:href="#DejaVuSans-7c" transform="translate(899.316406 0.609375)"/>
      <use xlink:href="#DejaVuSans-302" transform="translate(1012.155762 30.015625)"/>
      <use xlink:href="#DejaVuSans-4d" transform="translate(933.007812 0.609375)"/>
      <use xlink:href="#DejaVuSans-2212" transform="translate(1038.769531 0.609375)"/>
      <use xlink:href="#DejaVuSans-4d" transform="translate(1142.041016 0.609375)"/>
      <use xlink:href="#DejaVuSans-7c" transform="translate(1228.320312 0.609375)"/>
     </g>
    </g>
   </g>
   <g id="line2d_12">
    <path d="M 97.523182 284.830909 
L 100.486604 284.483949 
L 103.624346 283.888002 
L 107.110726 282.987967 
L 110.945743 281.755992 
L 115.303718 280.112233 
L 120.533287 277.890501 
L 128.029003 274.435897 
L 141.277245 268.316174 
L 147.20409 265.83978 
L 152.43366 263.890409 
L 157.140272 262.368745 
L 161.498247 261.18513 
L 165.681902 260.27569 
L 169.691239 259.630895 
L 173.526256 259.235321 
L 177.186955 259.071986 
L 182.590843 258.894395 
L 186.077222 258.518998 
L 189.563602 257.922759 
L 193.049982 257.097087 
L 196.536361 256.03565 
L 200.022741 254.732274 
L 203.50912 253.18276 
L 206.9955 251.381888 
L 210.481879 249.330068 
L 214.142578 246.90576 
L 217.803276 244.207937 
L 221.638294 241.095279 
L 225.64763 237.539236 
L 229.831286 233.519615 
L 234.363579 228.841005 
L 239.244511 223.474912 
L 244.997037 216.802202 
L 252.841391 207.325819 
L 265.043719 192.580532 
L 270.447608 186.411354 
L 274.979901 181.561319 
L 278.989238 177.59046 
L 282.649936 174.277093 
L 285.961997 171.568573 
L 289.099738 169.282806 
L 292.063161 167.394554 
L 294.852265 165.871615 
L 297.641368 164.608591 
L 300.256153 163.67148 
L 302.696619 163.018496 
L 305.137084 162.585262 
L 307.57755 162.376154 
L 312.109843 162.117635 
L 314.550309 161.668452 
L 316.990775 160.98701 
L 319.43124 160.071699 
L 321.871706 158.92397 
L 324.486491 157.437878 
L 327.101275 155.690709 
L 329.71606 153.687441 
L 332.505164 151.274712 
L 335.468586 148.408427 
L 338.606328 145.047415 
L 341.918389 141.154683 
L 345.404768 136.700883 
L 349.239786 131.414574 
L 353.423441 125.238956 
L 358.130053 117.866997 
L 363.708261 108.698835 
L 382.883348 76.787045 
L 386.892685 70.772401 
L 390.204745 66.18398 
L 393.168168 62.441237 
L 395.782953 59.474986 
L 398.223418 57.031939 
L 400.489565 55.079066 
L 402.581393 53.573166 
L 404.498901 52.46681 
L 406.242091 51.705934 
L 407.985281 51.194598 
L 409.554152 50.961849 
L 411.64598 50.725385 
L 413.040531 50.090605 
L 414.609402 49.134589 
L 416.526911 47.681228 
L 418.793058 45.65312 
L 421.75648 42.662399 
L 432.912895 31.045022 
L 435.52768 28.806677 
L 437.793826 27.14531 
L 439.885654 25.876346 
L 441.803163 24.958663 
L 443.720671 24.292935 
L 445.463861 23.917704 
L 445.986818 23.849091 
L 445.986818 23.849091 
" clip-path="url(#p34f5742a2d)" style="fill: none; stroke: #ff0000; stroke-width: 2; stroke-linecap: square"/>
   </g>
   <g id="patch_3">
    <path d="M 80.1 297.88 
L 80.1 10.8 
" style="fill: none; stroke: #000000; stroke-width: 0.8; stroke-linejoin: miter; stroke-linecap: square"/>
   </g>
   <g id="patch_4">
    <path d="M 463.41 297.88 
L 463.41 10.8 
" style="fill: none; stroke: #000000; stroke-width: 0.8; stroke-linejoin: miter; stroke-linecap: square"/>
   </g>
   <g id="patch_5">
    <path d="M 80.1 297.88 
L 463.41 297.88 
" style="fill: none; stroke: #000000; stroke-width: 0.8; stroke-linejoin: miter; stroke-linecap: square"/>
   </g>
   <g id="patch_6">
    <path d="M 80.1 10.8 
L 463.41 10.8 
" style="fill: none; stroke: #000000; stroke-width: 0.8; stroke-linejoin: miter; stroke-linecap: square"/>
   </g>
  </g>
  <g id="axes_2">
   <g id="matplotlib.axis_3">
    <g id="ytick_6">
     <g id="line2d_13">
      <defs>
       <path id="m9c3a80b2b2" d="M 0 0 
L 3.5 0 
" style="stroke: #000000; stroke-width: 0.8"/>
      </defs>
      <g>
       <use xlink:href="#m9c3a80b2b2" x="463.41" y="284.843175" style="stroke: #000000; stroke-width: 0.8"/>
      </g>
     </g>
     <g id="text_14">
      <!-- 0.0 -->
      <g transform="translate(470.41 292.441612) scale(0.2 -0.2)">
       <use xlink:href="#OpenSans-Regular-30"/>
       <use xlink:href="#OpenSans-Regular-2e" transform="translate(57.177734 0)"/>
       <use xlink:href="#OpenSans-Regular-30" transform="translate(83.447266 0)"/>
      </g>
     </g>
    </g>
    <g id="ytick_7">
     <g id="line2d_14">
      <g>
       <use xlink:href="#m9c3a80b2b2" x="463.41" y="233.366305" style="stroke: #000000; stroke-width: 0.8"/>
      </g>
     </g>
     <g id="text_15">
      <!-- 0.2 -->
      <g transform="translate(470.41 240.964742) scale(0.2 -0.2)">
       <use xlink:href="#OpenSans-Regular-30"/>
       <use xlink:href="#OpenSans-Regular-2e" transform="translate(57.177734 0)"/>
       <use xlink:href="#OpenSans-Regular-32" transform="translate(83.447266 0)"/>
      </g>
     </g>
    </g>
    <g id="ytick_8">
     <g id="line2d_15">
      <g>
       <use xlink:href="#m9c3a80b2b2" x="463.41" y="181.889434" style="stroke: #000000; stroke-width: 0.8"/>
      </g>
     </g>
     <g id="text_16">
      <!-- 0.4 -->
      <g transform="translate(470.41 189.487872) scale(0.2 -0.2)">
       <use xlink:href="#OpenSans-Regular-30"/>
       <use xlink:href="#OpenSans-Regular-2e" transform="translate(57.177734 0)"/>
       <use xlink:href="#OpenSans-Regular-34" transform="translate(83.447266 0)"/>
      </g>
     </g>
    </g>
    <g id="ytick_9">
     <g id="line2d_16">
      <g>
       <use xlink:href="#m9c3a80b2b2" x="463.41" y="130.412564" style="stroke: #000000; stroke-width: 0.8"/>
      </g>
     </g>
     <g id="text_17">
      <!-- 0.6 -->
      <g transform="translate(470.41 138.011002) scale(0.2 -0.2)">
       <use xlink:href="#OpenSans-Regular-30"/>
       <use xlink:href="#OpenSans-Regular-2e" transform="translate(57.177734 0)"/>
       <use xlink:href="#OpenSans-Regular-36" transform="translate(83.447266 0)"/>
      </g>
     </g>
    </g>
    <g id="ytick_10">
     <g id="line2d_17">
      <g>
       <use xlink:href="#m9c3a80b2b2" x="463.41" y="78.935694" style="stroke: #000000; stroke-width: 0.8"/>
      </g>
     </g>
     <g id="text_18">
      <!-- 0.8 -->
      <g transform="translate(470.41 86.534131) scale(0.2 -0.2)">
       <use xlink:href="#OpenSans-Regular-30"/>
       <use xlink:href="#OpenSans-Regular-2e" transform="translate(57.177734 0)"/>
       <use xlink:href="#OpenSans-Regular-38" transform="translate(83.447266 0)"/>
      </g>
     </g>
    </g>
    <g id="ytick_11">
     <g id="line2d_18">
      <g>
       <use xlink:href="#m9c3a80b2b2" x="463.41" y="27.458823" style="stroke: #000000; stroke-width: 0.8"/>
      </g>
     </g>
     <g id="text_19">
      <!-- 1.0 -->
      <g transform="translate(470.41 35.057261) scale(0.2 -0.2)">
       <use xlink:href="#OpenSans-Regular-31"/>
       <use xlink:href="#OpenSans-Regular-2e" transform="translate(57.177734 0)"/>
       <use xlink:href="#OpenSans-Regular-30" transform="translate(83.447266 0)"/>
      </g>
     </g>
    </g>
    <g id="text_20">
     <!-- Cumulative sum of $|\hat{\text{p}}-\text{p}|$ -->
     <g transform="translate(521.131875 276.04) rotate(-90) scale(0.2 -0.2)">
      <defs>
       <path id="DejaVuSans-70" d="M 1159 525 
L 1159 -1331 
L 581 -1331 
L 581 3500 
L 1159 3500 
L 1159 2969 
Q 1341 3281 1617 3432 
Q 1894 3584 2278 3584 
Q 2916 3584 3314 3078 
Q 3713 2572 3713 1747 
Q 3713 922 3314 415 
Q 2916 -91 2278 -91 
Q 1894 -91 1617 61 
Q 1341 213 1159 525 
z
M 3116 1747 
Q 3116 2381 2855 2742 
Q 2594 3103 2138 3103 
Q 1681 3103 1420 2742 
Q 1159 2381 1159 1747 
Q 1159 1113 1420 752 
Q 1681 391 2138 391 
Q 2594 391 2855 752 
Q 3116 1113 3116 1747 
z
" transform="scale(0.015625)"/>
      </defs>
      <use xlink:href="#OpenSans-Regular-43" transform="translate(0 0.515625)"/>
      <use xlink:href="#OpenSans-Regular-75" transform="translate(62.988281 0.515625)"/>
      <use xlink:href="#OpenSans-Regular-6d" transform="translate(124.316406 0.515625)"/>
      <use xlink:href="#OpenSans-Regular-75" transform="translate(216.894531 0.515625)"/>
      <use xlink:href="#OpenSans-Regular-6c" transform="translate(278.222656 0.515625)"/>
      <use xlink:href="#OpenSans-Regular-61" transform="translate(303.466797 0.515625)"/>
      <use xlink:href="#OpenSans-Regular-74" transform="translate(359.033203 0.515625)"/>
      <use xlink:href="#OpenSans-Regular-69" transform="translate(394.677734 0.515625)"/>
      <use xlink:href="#OpenSans-Regular-76" transform="translate(419.921875 0.515625)"/>
      <use xlink:href="#OpenSans-Regular-65" transform="translate(469.873047 0.515625)"/>
      <use xlink:href="#OpenSans-Regular-20" transform="translate(526.025391 0.515625)"/>
      <use xlink:href="#OpenSans-Regular-73" transform="translate(552.001953 0.515625)"/>
      <use xlink:href="#OpenSans-Regular-75" transform="translate(599.658203 0.515625)"/>
      <use xlink:href="#OpenSans-Regular-6d" transform="translate(660.986328 0.515625)"/>
      <use xlink:href="#OpenSans-Regular-20" transform="translate(753.564453 0.515625)"/>
      <use xlink:href="#OpenSans-Regular-6f" transform="translate(779.541016 0.515625)"/>
      <use xlink:href="#OpenSans-Regular-66" transform="translate(839.697266 0.515625)"/>
      <use xlink:href="#OpenSans-Regular-20" transform="translate(873.339844 0.515625)"/>
      <use xlink:href="#DejaVuSans-7c" transform="translate(899.316406 0.515625)"/>
      <use xlink:href="#DejaVuSans-302" transform="translate(997.455078 13.015625)"/>
      <use xlink:href="#DejaVuSans-70" transform="translate(933.007812 0.515625)"/>
      <use xlink:href="#DejaVuSans-2212" transform="translate(1015.966797 0.515625)"/>
      <use xlink:href="#DejaVuSans-70" transform="translate(1119.238281 0.515625)"/>
      <use xlink:href="#DejaVuSans-7c" transform="translate(1182.714844 0.515625)"/>
     </g>
    </g>
   </g>
   <g id="line2d_19">
    <path d="M 97.523182 284.830909 
L 100.137966 284.531835 
L 102.92707 283.987107 
L 105.890493 283.17044 
L 109.028234 282.063355 
L 112.340295 280.655984 
L 116.000993 278.8603 
L 120.358968 276.461595 
L 125.937175 273.110325 
L 143.194754 262.528128 
L 147.901366 259.997771 
L 152.085022 257.989677 
L 155.920039 256.382695 
L 159.580738 255.083586 
L 163.067117 254.075346 
L 166.379178 253.338831 
L 169.691239 252.827955 
L 172.82898 252.560014 
L 181.544929 252.028681 
L 184.682671 251.445504 
L 187.820412 250.625463 
L 190.958154 249.564631 
L 194.095895 248.260781 
L 197.233637 246.711393 
L 200.371379 244.913948 
L 203.50912 242.869566 
L 206.821181 240.446008 
L 210.30756 237.604932 
L 213.79394 234.473886 
L 217.454638 230.886185 
L 221.289656 226.816781 
L 225.473311 222.043592 
L 230.005605 216.529524 
L 235.235174 209.805873 
L 242.033614 200.676462 
L 256.153451 181.613135 
L 261.208702 175.2217 
L 265.392357 170.277234 
L 269.053056 166.271426 
L 272.539435 162.782487 
L 275.677177 159.946364 
L 278.6406 157.556231 
L 281.429703 155.579627 
L 284.218807 153.88055 
L 286.833592 152.548838 
L 289.448376 151.477295 
L 291.888842 150.71718 
L 294.329308 150.190538 
L 296.769773 149.899249 
L 299.733196 149.808627 
L 302.173662 149.581235 
L 304.614127 149.124275 
L 307.054593 148.442275 
L 309.669378 147.467835 
L 312.284162 146.249559 
L 315.073266 144.692932 
L 317.86237 142.883747 
L 320.825792 140.701031 
L 323.963534 138.118813 
L 327.449913 134.951987 
L 331.284931 131.148724 
L 335.468586 126.673516 
L 340.349518 121.110534 
L 346.450682 113.793421 
L 368.066235 87.544402 
L 373.121486 81.945214 
L 377.47946 77.440807 
L 381.488796 73.609217 
L 385.149495 70.406476 
L 388.635875 67.644482 
L 391.947935 65.301336 
L 395.085677 63.350198 
L 398.049099 61.760035 
L 401.012522 60.426346 
L 403.801626 59.414042 
L 406.590729 58.645197 
L 409.205514 58.151469 
L 412.168937 57.616588 
L 413.389169 57.013441 
L 414.783721 56.053384 
L 416.352592 54.681395 
L 418.095782 52.860781 
L 420.361928 50.140589 
L 423.325351 46.193376 
L 432.215619 34.095017 
L 434.830404 31.03246 
L 437.09655 28.723915 
L 439.014059 27.067827 
L 440.757249 25.829264 
L 442.500439 24.867305 
L 444.069309 24.254506 
L 445.63818 23.89372 
L 445.986818 23.849091 
L 445.986818 23.849091 
" clip-path="url(#p34f5742a2d)" style="fill: none; stroke: #008000; stroke-width: 2; stroke-linecap: square"/>
   </g>
   <g id="patch_7">
    <path d="M 80.1 297.88 
L 80.1 10.8 
" style="fill: none; stroke: #000000; stroke-width: 0.8; stroke-linejoin: miter; stroke-linecap: square"/>
   </g>
   <g id="patch_8">
    <path d="M 463.41 297.88 
L 463.41 10.8 
" style="fill: none; stroke: #000000; stroke-width: 0.8; stroke-linejoin: miter; stroke-linecap: square"/>
   </g>
   <g id="patch_9">
    <path d="M 80.1 297.88 
L 463.41 297.88 
" style="fill: none; stroke: #000000; stroke-width: 0.8; stroke-linejoin: miter; stroke-linecap: square"/>
   </g>
   <g id="patch_10">
    <path d="M 80.1 10.8 
L 463.41 10.8 
" style="fill: none; stroke: #000000; stroke-width: 0.8; stroke-linejoin: miter; stroke-linecap: square"/>
   </g>
  </g>
 </g>
 <defs>
  <clipPath id="p34f5742a2d">
   <rect x="80.1" y="10.8" width="383.31" height="287.08"/>
  </clipPath>
 </defs>
</svg>
