<?xml version="1.0" encoding="utf-8" standalone="no"?>
<!DOCTYPE svg PUBLIC "-//W3C//DTD SVG 1.1//EN"
  "http://www.w3.org/Graphics/SVG/1.1/DTD/svg11.dtd">
<svg xmlns:xlink="http://www.w3.org/1999/xlink" width="540pt" height="360pt" viewBox="0 0 540 360" xmlns="http://www.w3.org/2000/svg" version="1.1">
 <metadata>
  <rdf:RDF xmlns:dc="http://purl.org/dc/elements/1.1/" xmlns:cc="http://creativecommons.org/ns#" xmlns:rdf="http://www.w3.org/1999/02/22-rdf-syntax-ns#">
   <cc:Work>
    <dc:type rdf:resource="http://purl.org/dc/dcmitype/StillImage"/>
    <dc:date>2026-08-21T22:11:03.848608</dc:date>
    <dc:format>image/svg+xml</dc:format>
    <dc:creator>
     <cc:Agent>
      <dc:title>Matplotlib v3.10.7, https://matplotlib.org/</dc:title>
     </cc:Agent>
    </dc:creator>
   </cc:Work>
  </rdf:RDF>
 </metadata>
 <defs>
  <style type="text/css">*{stroke-linejoin: round; stroke-linecap: butt}</style>
 </defs>
 <g id="figure_1">
  <g id="patch_1">
   <path d="M 0 360 
L 540 360 
L 540 0 
L 0 0 
z
" style="fill: #ffffff"/>
  </g>
  <g id="axes_1">
   <g id="patch_2">
    <path d="M 87.156 297.88 
L 529.2 297.88 
L 529.2 10.8 
L 87.156 10.8 
z
" style="fill: #ffffff"/>
   </g>
   <g id="matplotlib.axis_1">
    <g id="xtick_1">
     <g id="line2d_1">
      <defs>
       <path id="mec82917a50" d="M 0 0 
L 0 3.5 
" style="stroke: #000000; stroke-width: 0.8"/>
      </defs>
      <g>
       <use xlink:href="#mec82917a50" x="193.37368" y="297.88" style="stroke: #000000; stroke-width: 0.8"/>
      </g>
     </g>
     <g id="text_1">
      <!-- 4000 -->
      <g transform="translate(170.50493 320.076875) scale(0.2 -0.2)">
       <defs>
        <path id="OpenSans-Regular-34" d="M 3538 1059 
L 2853 1059 
L 2853 0 
L 2347 0 
L 2347 1059 
L 138 1059 
L 138 1497 
L 2313 4594 
L 2853 4594 
L 2853 1528 
L 3538 1528 
L 3538 1059 
z
M 2347 1528 
L 2347 3022 
Q 2347 3194 2350 3333 
Q 2353 3472 2359 3592 
Q 2366 3713 2370 3822 
Q 2375 3931 2378 4038 
L 2353 4038 
Q 2294 3913 2217 3773 
Q 2141 3634 2063 3525 
L 653 1528 
L 2347 1528 
z
" transform="scale(0.015625)"/>
        <path id="OpenSans-Regular-30" d="M 3334 2291 
Q 3334 1734 3250 1296 
Q 3166 859 2984 556 
Q 2803 253 2515 95 
Q 2228 -63 1825 -63 
Q 1316 -63 983 215 
Q 650 494 486 1020 
Q 322 1547 322 2291 
Q 322 3022 470 3548 
Q 619 4075 950 4358 
Q 1281 4641 1825 4641 
Q 2341 4641 2675 4361 
Q 3009 4081 3171 3554 
Q 3334 3028 3334 2291 
z
M 844 2291 
Q 844 1653 941 1228 
Q 1038 803 1255 592 
Q 1472 381 1825 381 
Q 2178 381 2395 590 
Q 2613 800 2711 1225 
Q 2809 1650 2809 2291 
Q 2809 2919 2712 3342 
Q 2616 3766 2400 3980 
Q 2184 4194 1825 4194 
Q 1466 4194 1250 3980 
Q 1034 3766 939 3342 
Q 844 2919 844 2291 
z
" transform="scale(0.015625)"/>
       </defs>
       <use xlink:href="#OpenSans-Regular-34"/>
       <use xlink:href="#OpenSans-Regular-30" transform="translate(57.177734 0)"/>
       <use xlink:href="#OpenSans-Regular-30" transform="translate(114.355469 0)"/>
       <use xlink:href="#OpenSans-Regular-30" transform="translate(171.533203 0)"/>
      </g>
     </g>
    </g>
    <g id="xtick_2">
     <g id="line2d_2">
      <g>
       <use xlink:href="#mec82917a50" x="308.206708" y="297.88" style="stroke: #000000; stroke-width: 0.8"/>
      </g>
     </g>
     <g id="text_2">
      <!-- 6000 -->
      <g transform="translate(285.337958 320.076875) scale(0.2 -0.2)">
       <defs>
        <path id="OpenSans-Regular-36" d="M 363 1953 
Q 363 2366 420 2759 
Q 478 3153 615 3492 
Q 753 3831 990 4087 
Q 1228 4344 1583 4489 
Q 1938 4634 2434 4634 
Q 2575 4634 2737 4620 
Q 2900 4606 3006 4575 
L 3006 4128 
Q 2891 4169 2742 4187 
Q 2594 4206 2444 4206 
Q 1863 4206 1530 3953 
Q 1197 3700 1050 3267 
Q 903 2834 881 2294 
L 916 2294 
Q 1013 2450 1163 2576 
Q 1313 2703 1527 2778 
Q 1741 2853 2025 2853 
Q 2425 2853 2723 2690 
Q 3022 2528 3186 2218 
Q 3350 1909 3350 1469 
Q 3350 997 3175 653 
Q 3000 309 2676 123 
Q 2353 -63 1906 -63 
Q 1572 -63 1290 65 
Q 1009 194 801 447 
Q 594 700 478 1076 
Q 363 1453 363 1953 
z
M 1900 375 
Q 2325 375 2581 647 
Q 2838 919 2838 1469 
Q 2838 1919 2609 2181 
Q 2381 2444 1922 2444 
Q 1609 2444 1378 2314 
Q 1147 2184 1019 1987 
Q 891 1791 891 1588 
Q 891 1381 952 1168 
Q 1013 956 1138 775 
Q 1263 594 1453 484 
Q 1644 375 1900 375 
z
" transform="scale(0.015625)"/>
       </defs>
       <use xlink:href="#OpenSans-Regular-36"/>
       <use xlink:href="#OpenSans-Regular-30" transform="translate(57.177734 0)"/>
       <use xlink:href="#OpenSans-Regular-30" transform="translate(114.355469 0)"/>
       <use xlink:href="#OpenSans-Regular-30" transform="translate(171.533203 0)"/>
      </g>
     </g>
    </g>
    <g id="xtick_3">
     <g id="line2d_3">
      <g>
       <use xlink:href="#mec82917a50" x="423.039736" y="297.88" style="stroke: #000000; stroke-width: 0.8"/>
      </g>
     </g>
     <g id="text_3">
      <!-- 8000 -->
      <g transform="translate(400.170986 320.076875) scale(0.2 -0.2)">
       <defs>
        <path id="OpenSans-Regular-38" d="M 1825 4634 
Q 2222 4634 2528 4509 
Q 2834 4384 3007 4142 
Q 3181 3900 3181 3547 
Q 3181 3269 3061 3061 
Q 2941 2853 2737 2698 
Q 2534 2544 2288 2422 
Q 2581 2288 2817 2119 
Q 3053 1950 3190 1722 
Q 3328 1494 3328 1181 
Q 3328 797 3142 517 
Q 2956 238 2622 87 
Q 2288 -63 1838 -63 
Q 1353 -63 1014 82 
Q 675 228 498 501 
Q 322 775 322 1159 
Q 322 1475 456 1708 
Q 591 1941 812 2109 
Q 1034 2278 1297 2394 
Q 1069 2519 880 2678 
Q 691 2838 580 3052 
Q 469 3266 469 3550 
Q 469 3897 645 4139 
Q 822 4381 1130 4507 
Q 1438 4634 1825 4634 
z
M 831 1156 
Q 831 806 1078 579 
Q 1325 353 1825 353 
Q 2300 353 2559 579 
Q 2819 806 2819 1175 
Q 2819 1403 2700 1576 
Q 2581 1750 2362 1887 
Q 2144 2025 1847 2138 
L 1734 2178 
Q 1447 2059 1245 1914 
Q 1044 1769 937 1584 
Q 831 1400 831 1156 
z
M 1819 4209 
Q 1450 4209 1215 4032 
Q 981 3856 981 3525 
Q 981 3288 1095 3123 
Q 1209 2959 1406 2842 
Q 1603 2725 1847 2625 
Q 2084 2725 2268 2845 
Q 2453 2966 2559 3131 
Q 2666 3297 2666 3528 
Q 2666 3859 2433 4034 
Q 2200 4209 1819 4209 
z
" transform="scale(0.015625)"/>
       </defs>
       <use xlink:href="#OpenSans-Regular-38"/>
       <use xlink:href="#OpenSans-Regular-30" transform="translate(57.177734 0)"/>
       <use xlink:href="#OpenSans-Regular-30" transform="translate(114.355469 0)"/>
       <use xlink:href="#OpenSans-Regular-30" transform="translate(171.533203 0)"/>
      </g>
     </g>
    </g>
    <g id="text_4">
     <!-- Number of epochs -->
     <g transform="translate(221.420187 344.164375) scale(0.2 -0.2)">
      <defs>
       <path id="OpenSans-Regular-4e" d="M 4197 0 
L 3584 0 
L 1094 3838 
L 1069 3838 
Q 1078 3684 1090 3489 
Q 1103 3294 1111 3073 
Q 1119 2853 1119 2625 
L 1119 0 
L 625 0 
L 625 4569 
L 1234 4569 
L 3716 744 
L 3738 744 
Q 3731 853 3722 1054 
Q 3713 1256 3705 1489 
Q 3697 1722 3697 1922 
L 3697 4569 
L 4197 4569 
L 4197 0 
z
" transform="scale(0.015625)"/>
       <path id="OpenSans-Regular-75" d="M 3375 3425 
L 3375 0 
L 2950 0 
L 2875 481 
L 2847 481 
Q 2741 303 2572 181 
Q 2403 59 2192 -2 
Q 1981 -63 1744 -63 
Q 1338 -63 1063 68 
Q 788 200 648 475 
Q 509 750 509 1181 
L 509 3425 
L 1034 3425 
L 1034 1219 
Q 1034 791 1228 580 
Q 1422 369 1819 369 
Q 2200 369 2426 512 
Q 2653 656 2753 936 
Q 2853 1216 2853 1622 
L 2853 3425 
L 3375 3425 
z
" transform="scale(0.015625)"/>
       <path id="OpenSans-Regular-6d" d="M 4266 3488 
Q 4831 3488 5118 3192 
Q 5406 2897 5406 2244 
L 5406 0 
L 4894 0 
L 4894 2219 
Q 4894 2634 4714 2842 
Q 4534 3050 4181 3050 
Q 3684 3050 3459 2762 
Q 3234 2475 3234 1916 
L 3234 0 
L 2719 0 
L 2719 2219 
Q 2719 2497 2639 2681 
Q 2559 2866 2401 2958 
Q 2244 3050 2003 3050 
Q 1663 3050 1456 2909 
Q 1250 2769 1158 2492 
Q 1066 2216 1066 1813 
L 1066 0 
L 547 0 
L 547 3425 
L 966 3425 
L 1044 2941 
L 1072 2941 
Q 1175 3119 1331 3241 
Q 1488 3363 1681 3425 
Q 1875 3488 2094 3488 
Q 2484 3488 2748 3342 
Q 3013 3197 3131 2900 
L 3159 2900 
Q 3328 3197 3622 3342 
Q 3916 3488 4266 3488 
z
" transform="scale(0.015625)"/>
       <path id="OpenSans-Regular-62" d="M 1066 4863 
L 1066 3647 
Q 1066 3438 1055 3241 
Q 1044 3044 1038 2934 
L 1066 2934 
Q 1206 3166 1472 3325 
Q 1738 3484 2150 3484 
Q 2794 3484 3176 3039 
Q 3559 2594 3559 1716 
Q 3559 1138 3384 741 
Q 3209 344 2890 140 
Q 2572 -63 2138 -63 
Q 1731 -63 1470 89 
Q 1209 241 1069 459 
L 1028 459 
L 922 0 
L 547 0 
L 547 4863 
L 1066 4863 
z
M 2066 3050 
Q 1694 3050 1475 2904 
Q 1256 2759 1161 2467 
Q 1066 2175 1066 1728 
L 1066 1700 
Q 1066 1053 1281 711 
Q 1497 369 2066 369 
Q 2544 369 2783 719 
Q 3022 1069 3022 1719 
Q 3022 2381 2786 2715 
Q 2550 3050 2066 3050 
z
" transform="scale(0.015625)"/>
       <path id="OpenSans-Regular-65" d="M 1866 3488 
Q 2303 3488 2615 3294 
Q 2928 3100 3093 2751 
Q 3259 2403 3259 1938 
L 3259 1616 
L 894 1616 
Q 903 1013 1193 697 
Q 1484 381 2013 381 
Q 2338 381 2588 440 
Q 2838 500 3106 616 
L 3106 159 
Q 2847 44 2592 -9 
Q 2338 -63 1991 -63 
Q 1497 -63 1130 139 
Q 763 341 559 731 
Q 356 1122 356 1688 
Q 356 2241 542 2645 
Q 728 3050 1067 3269 
Q 1406 3488 1866 3488 
z
M 1859 3063 
Q 1444 3063 1197 2791 
Q 950 2519 903 2031 
L 2716 2031 
Q 2713 2338 2620 2570 
Q 2528 2803 2340 2933 
Q 2153 3063 1859 3063 
z
" transform="scale(0.015625)"/>
       <path id="OpenSans-Regular-72" d="M 2103 3488 
Q 2206 3488 2318 3477 
Q 2431 3466 2519 3447 
L 2453 2966 
Q 2369 2988 2266 3000 
Q 2163 3013 2072 3013 
Q 1866 3013 1683 2930 
Q 1500 2847 1362 2692 
Q 1225 2538 1147 2320 
Q 1069 2103 1069 1838 
L 1069 0 
L 547 0 
L 547 3425 
L 978 3425 
L 1034 2794 
L 1056 2794 
Q 1163 2984 1313 3142 
Q 1463 3300 1661 3394 
Q 1859 3488 2103 3488 
z
" transform="scale(0.015625)"/>
       <path id="OpenSans-Regular-20" transform="scale(0.015625)"/>
       <path id="OpenSans-Regular-6f" d="M 3500 1719 
Q 3500 1297 3390 965 
Q 3281 634 3075 406 
Q 2869 178 2576 57 
Q 2284 -63 1916 -63 
Q 1572 -63 1286 57 
Q 1000 178 792 406 
Q 584 634 470 965 
Q 356 1297 356 1719 
Q 356 2281 547 2676 
Q 738 3072 1092 3280 
Q 1447 3488 1938 3488 
Q 2406 3488 2757 3278 
Q 3109 3069 3304 2673 
Q 3500 2278 3500 1719 
z
M 894 1719 
Q 894 1306 1003 1003 
Q 1113 700 1341 534 
Q 1569 369 1928 369 
Q 2284 369 2514 534 
Q 2744 700 2853 1003 
Q 2963 1306 2963 1719 
Q 2963 2128 2853 2426 
Q 2744 2725 2516 2887 
Q 2288 3050 1925 3050 
Q 1391 3050 1142 2697 
Q 894 2344 894 1719 
z
" transform="scale(0.015625)"/>
       <path id="OpenSans-Regular-66" d="M 2072 3019 
L 1219 3019 
L 1219 0 
L 700 0 
L 700 3019 
L 94 3019 
L 94 3269 
L 700 3441 
L 700 3669 
Q 700 4100 828 4370 
Q 956 4641 1200 4769 
Q 1444 4897 1794 4897 
Q 1991 4897 2155 4862 
Q 2319 4828 2444 4784 
L 2309 4375 
Q 2203 4409 2070 4439 
Q 1938 4469 1800 4469 
Q 1503 4469 1361 4276 
Q 1219 4084 1219 3675 
L 1219 3425 
L 2072 3425 
L 2072 3019 
z
" transform="scale(0.015625)"/>
       <path id="OpenSans-Regular-70" d="M 2156 3488 
Q 2797 3488 3178 3047 
Q 3559 2606 3559 1722 
Q 3559 1138 3384 741 
Q 3209 344 2892 140 
Q 2575 -63 2144 -63 
Q 1872 -63 1665 9 
Q 1459 81 1312 203 
Q 1166 325 1069 469 
L 1031 469 
Q 1041 347 1055 175 
Q 1069 3 1069 -125 
L 1069 -1531 
L 547 -1531 
L 547 3425 
L 975 3425 
L 1044 2919 
L 1069 2919 
Q 1169 3075 1312 3204 
Q 1456 3334 1664 3411 
Q 1872 3488 2156 3488 
z
M 2066 3050 
Q 1709 3050 1492 2912 
Q 1275 2775 1175 2501 
Q 1075 2228 1069 1816 
L 1069 1716 
Q 1069 1281 1164 981 
Q 1259 681 1479 525 
Q 1700 369 2072 369 
Q 2391 369 2603 541 
Q 2816 713 2920 1020 
Q 3025 1328 3025 1728 
Q 3025 2334 2789 2692 
Q 2553 3050 2066 3050 
z
" transform="scale(0.015625)"/>
       <path id="OpenSans-Regular-63" d="M 1919 -63 
Q 1456 -63 1103 128 
Q 750 319 553 709 
Q 356 1100 356 1694 
Q 356 2316 564 2711 
Q 772 3106 1137 3297 
Q 1503 3488 1969 3488 
Q 2225 3488 2464 3436 
Q 2703 3384 2856 3306 
L 2700 2872 
Q 2544 2934 2339 2984 
Q 2134 3034 1956 3034 
Q 1600 3034 1364 2881 
Q 1128 2728 1011 2431 
Q 894 2134 894 1700 
Q 894 1284 1008 990 
Q 1122 697 1348 542 
Q 1575 388 1916 388 
Q 2188 388 2406 445 
Q 2625 503 2803 581 
L 2803 119 
Q 2631 31 2420 -16 
Q 2209 -63 1919 -63 
z
" transform="scale(0.015625)"/>
       <path id="OpenSans-Regular-68" d="M 1066 4863 
L 1066 3409 
Q 1066 3284 1059 3157 
Q 1053 3031 1038 2925 
L 1072 2925 
Q 1178 3106 1342 3229 
Q 1506 3353 1715 3417 
Q 1925 3481 2159 3481 
Q 2572 3481 2848 3350 
Q 3125 3219 3264 2944 
Q 3403 2669 3403 2231 
L 3403 0 
L 2891 0 
L 2891 2197 
Q 2891 2625 2695 2837 
Q 2500 3050 2097 3050 
Q 1716 3050 1489 2904 
Q 1263 2759 1164 2478 
Q 1066 2197 1066 1791 
L 1066 0 
L 547 0 
L 547 4863 
L 1066 4863 
z
" transform="scale(0.015625)"/>
       <path id="OpenSans-Regular-73" d="M 2763 938 
Q 2763 609 2598 386 
Q 2434 163 2129 50 
Q 1825 -63 1403 -63 
Q 1044 -63 781 -6 
Q 519 50 322 153 
L 322 631 
Q 531 528 822 443 
Q 1113 359 1416 359 
Q 1859 359 2059 503 
Q 2259 647 2259 894 
Q 2259 1034 2179 1142 
Q 2100 1250 1912 1351 
Q 1725 1453 1394 1575 
Q 1066 1700 827 1823 
Q 588 1947 458 2125 
Q 328 2303 328 2588 
Q 328 3022 679 3255 
Q 1031 3488 1603 3488 
Q 1913 3488 2183 3427 
Q 2453 3366 2688 3263 
L 2513 2847 
Q 2300 2938 2059 3000 
Q 1819 3063 1569 3063 
Q 1209 3063 1017 2944 
Q 825 2825 825 2619 
Q 825 2459 914 2356 
Q 1003 2253 1200 2162 
Q 1397 2072 1719 1950 
Q 2041 1831 2275 1704 
Q 2509 1578 2636 1398 
Q 2763 1219 2763 938 
z
" transform="scale(0.015625)"/>
      </defs>
      <use xlink:href="#OpenSans-Regular-4e"/>
      <use xlink:href="#OpenSans-Regular-75" transform="translate(75.292969 0)"/>
      <use xlink:href="#OpenSans-Regular-6d" transform="translate(136.621094 0)"/>
      <use xlink:href="#OpenSans-Regular-62" transform="translate(229.199219 0)"/>
      <use xlink:href="#OpenSans-Regular-65" transform="translate(290.380859 0)"/>
      <use xlink:href="#OpenSans-Regular-72" transform="translate(346.533203 0)"/>
      <use xlink:href="#OpenSans-Regular-20" transform="translate(387.402344 0)"/>
      <use xlink:href="#OpenSans-Regular-6f" transform="translate(413.378906 0)"/>
      <use xlink:href="#OpenSans-Regular-66" transform="translate(473.535156 0)"/>
      <use xlink:href="#OpenSans-Regular-20" transform="translate(507.177734 0)"/>
      <use xlink:href="#OpenSans-Regular-65" transform="translate(533.154297 0)"/>
      <use xlink:href="#OpenSans-Regular-70" transform="translate(589.306641 0)"/>
      <use xlink:href="#OpenSans-Regular-6f" transform="translate(650.488281 0)"/>
      <use xlink:href="#OpenSans-Regular-63" transform="translate(710.644531 0)"/>
      <use xlink:href="#OpenSans-Regular-68" transform="translate(758.544922 0)"/>
      <use xlink:href="#OpenSans-Regular-73" transform="translate(819.873047 0)"/>
     </g>
    </g>
   </g>
   <g id="matplotlib.axis_2">
    <g id="ytick_1">
     <g id="line2d_4">
      <defs>
       <path id="m506c4ab1a8" d="M 0 0 
L -3.5 0 
" style="stroke: #000000; stroke-width: 0.8"/>
      </defs>
      <g>
       <use xlink:href="#m506c4ab1a8" x="87.156" y="245.824931" style="stroke: #000000; stroke-width: 0.8"/>
      </g>
     </g>
     <g id="text_5">
      <!-- 0.84 -->
      <g transform="translate(40.59975 253.423368) scale(0.2 -0.2)">
       <defs>
        <path id="OpenSans-Regular-2e" d="M 469 325 
Q 469 544 575 636 
Q 681 728 834 728 
Q 994 728 1103 636 
Q 1213 544 1213 325 
Q 1213 109 1103 10 
Q 994 -88 834 -88 
Q 681 -88 575 10 
Q 469 109 469 325 
z
" transform="scale(0.015625)"/>
       </defs>
       <use xlink:href="#OpenSans-Regular-30"/>
       <use xlink:href="#OpenSans-Regular-2e" transform="translate(57.177734 0)"/>
       <use xlink:href="#OpenSans-Regular-38" transform="translate(83.447266 0)"/>
       <use xlink:href="#OpenSans-Regular-34" transform="translate(140.625 0)"/>
      </g>
     </g>
    </g>
    <g id="ytick_2">
     <g id="line2d_5">
      <g>
       <use xlink:href="#m506c4ab1a8" x="87.156" y="173.037886" style="stroke: #000000; stroke-width: 0.8"/>
      </g>
     </g>
     <g id="text_6">
      <!-- 0.86 -->
      <g transform="translate(40.59975 180.636324) scale(0.2 -0.2)">
       <use xlink:href="#OpenSans-Regular-30"/>
       <use xlink:href="#OpenSans-Regular-2e" transform="translate(57.177734 0)"/>
       <use xlink:href="#OpenSans-Regular-38" transform="translate(83.447266 0)"/>
       <use xlink:href="#OpenSans-Regular-36" transform="translate(140.625 0)"/>
      </g>
     </g>
    </g>
    <g id="ytick_3">
     <g id="line2d_6">
      <g>
       <use xlink:href="#m506c4ab1a8" x="87.156" y="100.250842" style="stroke: #000000; stroke-width: 0.8"/>
      </g>
     </g>
     <g id="text_7">
      <!-- 0.88 -->
      <g transform="translate(40.59975 107.849279) scale(0.2 -0.2)">
       <use xlink:href="#OpenSans-Regular-30"/>
       <use xlink:href="#OpenSans-Regular-2e" transform="translate(57.177734 0)"/>
       <use xlink:href="#OpenSans-Regular-38" transform="translate(83.447266 0)"/>
       <use xlink:href="#OpenSans-Regular-38" transform="translate(140.625 0)"/>
      </g>
     </g>
    </g>
    <g id="ytick_4">
     <g id="line2d_7">
      <g>
       <use xlink:href="#m506c4ab1a8" x="87.156" y="27.463797" style="stroke: #000000; stroke-width: 0.8"/>
      </g>
     </g>
     <g id="text_8">
      <!-- 0.90 -->
      <g transform="translate(40.59975 35.062235) scale(0.2 -0.2)">
       <defs>
        <path id="OpenSans-Regular-39" d="M 3316 2622 
Q 3316 2206 3258 1812 
Q 3200 1419 3061 1078 
Q 2922 738 2684 481 
Q 2447 225 2089 79 
Q 1731 -66 1234 -66 
Q 1100 -66 928 -48 
Q 756 -31 647 0 
L 647 450 
Q 763 409 919 386 
Q 1075 363 1225 363 
Q 1809 363 2143 614 
Q 2478 866 2625 1298 
Q 2772 1731 2791 2272 
L 2753 2272 
Q 2659 2122 2507 1995 
Q 2356 1869 2140 1792 
Q 1925 1716 1638 1716 
Q 1241 1716 945 1878 
Q 650 2041 486 2350 
Q 322 2659 322 3097 
Q 322 3569 501 3914 
Q 681 4259 1006 4446 
Q 1331 4634 1772 4634 
Q 2109 4634 2390 4506 
Q 2672 4378 2880 4123 
Q 3088 3869 3202 3494 
Q 3316 3119 3316 2622 
z
M 1772 4194 
Q 1356 4194 1098 3922 
Q 841 3650 841 3103 
Q 841 2650 1062 2387 
Q 1284 2125 1747 2125 
Q 2066 2125 2298 2253 
Q 2531 2381 2657 2578 
Q 2784 2775 2784 2981 
Q 2784 3188 2723 3400 
Q 2663 3613 2538 3792 
Q 2413 3972 2222 4083 
Q 2031 4194 1772 4194 
z
" transform="scale(0.015625)"/>
       </defs>
       <use xlink:href="#OpenSans-Regular-30"/>
       <use xlink:href="#OpenSans-Regular-2e" transform="translate(57.177734 0)"/>
       <use xlink:href="#OpenSans-Regular-39" transform="translate(83.447266 0)"/>
       <use xlink:href="#OpenSans-Regular-30" transform="translate(140.625 0)"/>
      </g>
     </g>
    </g>
    <g id="text_9">
     <!-- $\hat{\text{x}}_\text{s}$ -->
     <g transform="translate(31.815375 164.34) rotate(-90) scale(0.2 -0.2)">
      <defs>
       <path id="DejaVuSans-302" d="M -1831 5119 
L -1369 5119 
L -603 3944 
L -1038 3944 
L -1600 4709 
L -2163 3944 
L -2597 3944 
L -1831 5119 
z
M -1600 3584 
L -1600 3584 
z
" transform="scale(0.015625)"/>
       <path id="DejaVuSans-78" d="M 3513 3500 
L 2247 1797 
L 3578 0 
L 2900 0 
L 1881 1375 
L 863 0 
L 184 0 
L 1544 1831 
L 300 3500 
L 978 3500 
L 1906 2253 
L 2834 3500 
L 3513 3500 
z
" transform="scale(0.015625)"/>
       <path id="DejaVuSans-73" d="M 2834 3397 
L 2834 2853 
Q 2591 2978 2328 3040 
Q 2066 3103 1784 3103 
Q 1356 3103 1142 2972 
Q 928 2841 928 2578 
Q 928 2378 1081 2264 
Q 1234 2150 1697 2047 
L 1894 2003 
Q 2506 1872 2764 1633 
Q 3022 1394 3022 966 
Q 3022 478 2636 193 
Q 2250 -91 1575 -91 
Q 1294 -91 989 -36 
Q 684 19 347 128 
L 347 722 
Q 666 556 975 473 
Q 1284 391 1588 391 
Q 1994 391 2212 530 
Q 2431 669 2431 922 
Q 2431 1156 2273 1281 
Q 2116 1406 1581 1522 
L 1381 1569 
Q 847 1681 609 1914 
Q 372 2147 372 2553 
Q 372 3047 722 3315 
Q 1072 3584 1716 3584 
Q 2034 3584 2315 3537 
Q 2597 3491 2834 3397 
z
" transform="scale(0.015625)"/>
      </defs>
      <use xlink:href="#DejaVuSans-302" transform="translate(62.373047 12.015625)"/>
      <use xlink:href="#DejaVuSans-78" transform="translate(0 0.828125)"/>
      <use xlink:href="#DejaVuSans-73" transform="translate(60.136719 -15.578125) scale(0.7)"/>
     </g>
    </g>
   </g>
   <g id="line2d_8">
    <path d="M 107.248909 220.991979 
L 107.823074 224.013706 
L 108.397239 225.548432 
L 108.856571 226.238678 
L 109.430737 226.6671 
L 110.004902 226.852135 
L 111.84223 227.153657 
L 114.885305 227.308756 
L 116.378135 227.613315 
L 117.756131 227.879045 
L 121.603038 228.452153 
L 125.162861 228.257357 
L 125.909276 227.922429 
L 126.598274 227.535006 
L 127.287272 227.168624 
L 129.583933 225.920453 
L 130.387764 225.533247 
L 132.741841 224.534103 
L 134.866252 223.227797 
L 135.497834 222.884843 
L 137.335162 221.701532 
L 138.19641 221.166601 
L 138.655742 220.918225 
L 139.287324 220.471582 
L 142.961981 218.07112 
L 143.421313 217.786301 
L 143.650979 217.750292 
L 144.914142 217.857018 
L 145.143808 217.877191 
L 146.119889 217.664825 
L 146.866304 217.52773 
L 148.186884 217.097356 
L 148.588799 217.015142 
L 152.493122 215.552652 
L 153.067287 215.21165 
L 153.35437 215.036377 
L 154.847199 213.764562 
L 155.306531 213.295142 
L 155.65103 213.0613 
L 156.167779 212.791231 
L 156.799361 212.228752 
L 157.603192 211.475598 
L 158.119941 211.037848 
L 161.737181 209.071231 
L 162.311346 208.672528 
L 162.713262 208.400507 
L 163.287427 207.996598 
L 164.378341 207.084873 
L 164.895089 206.818059 
L 165.067339 206.782484 
L 165.354421 206.844957 
L 165.584087 206.826953 
L 165.756337 206.93216 
L 167.363999 207.961023 
L 168.225247 208.175559 
L 168.741996 208.507884 
L 169.66066 208.895958 
L 170.119992 209.108325 
L 170.923823 209.430454 
L 172.416653 209.861262 
L 173.105651 210.097273 
L 173.564983 210.210073 
L 174.253981 210.217448 
L 176.033893 209.85714 
L 176.378392 209.893149 
L 176.895141 209.977315 
L 177.06739 210.01224 
L 177.526722 209.870156 
L 177.813805 209.821565 
L 178.38797 209.405508 
L 179.019552 209.003768 
L 179.306634 208.962336 
L 180.053049 209.106155 
L 180.340131 209.14954 
L 183.096124 209.234356 
L 185.163119 209.911154 
L 185.737284 210.182741 
L 186.196616 210.238273 
L 186.598532 210.114844 
L 186.943031 209.847379 
L 188.26361 209.587072 
L 190.330605 210.127859 
L 190.962187 209.930243 
L 191.249269 209.846728 
L 191.823434 209.966252 
L 192.971765 210.252373 
L 194.464594 210.197058 
L 195.038759 210.125907 
L 195.900007 210.191851 
L 196.244506 210.242611 
L 196.818671 210.117664 
L 197.16317 210.029377 
L 197.507669 209.927206 
L 198.598583 210.116579 
L 199.517247 210.073195 
L 203.708653 210.805308 
L 204.053152 210.939799 
L 204.455067 211.018108 
L 205.201482 210.939583 
L 205.488565 210.876892 
L 206.005313 210.984485 
L 206.636895 211.180366 
L 207.727809 211.387527 
L 208.072308 211.399024 
L 208.416807 211.459328 
L 208.703889 211.492301 
L 209.048388 211.547399 
L 209.622554 211.441975 
L 210.713467 211.46345 
L 211.517299 211.181234 
L 211.861798 211.099888 
L 212.206297 211.034378 
L 213.64171 211.26822 
L 214.215875 211.254337 
L 214.560374 211.282537 
L 215.134539 211.1103 
L 215.766121 210.88405 
L 216.11062 210.723311 
L 216.857034 210.446084 
L 217.947948 209.996621 
L 219.785277 209.996404 
L 220.129776 210.064301 
L 220.474275 210.14261 
L 220.818774 210.222437 
L 221.163273 210.164519 
L 221.450356 210.09749 
L 222.36902 209.933497 
L 222.598686 209.887943 
L 223.000601 209.644556 
L 223.919266 208.690749 
L 224.206348 208.56168 
L 224.550847 208.402242 
L 225.584345 208.229789 
L 226.043677 207.733905 
L 227.077174 206.375104 
L 228.053255 205.451232 
L 228.397754 205.211532 
L 229.029335 204.603065 
L 230.062833 203.677241 
L 231.325996 202.068328 
L 232.187244 201.097601 
L 232.531743 200.665492 
L 233.105908 199.864615 
L 233.39299 199.509513 
L 234.770987 197.646367 
L 236.608315 195.452198 
L 237.469563 194.72681 
L 238.50306 193.913135 
L 240.110723 192.014197 
L 241.201636 190.37947 
L 241.775802 189.752348 
L 242.349967 189.693779 
L 242.924132 189.675341 
L 243.44088 189.336942 
L 244.93371 186.96815 
L 245.450458 186.338859 
L 246.369123 187.228674 
L 247.460036 189.167092 
L 248.034202 189.317202 
L 249.067699 188.746696 
L 249.527031 188.349512 
L 250.560528 187.318697 
L 251.077277 186.794396 
L 251.479192 186.517603 
L 252.283024 185.650781 
L 253.144271 184.518664 
L 253.775853 183.690021 
L 255.440932 181.366783 
L 257.335677 179.774356 
L 259.862003 175.099464 
L 261.814165 170.568174 
L 262.675413 168.64993 
L 263.421827 166.911949 
L 265.431405 162.471983 
L 266.464903 160.017941 
L 267.268734 158.399484 
L 269.96731 153.136515 
L 271.804638 149.838862 
L 273.182635 146.738609 
L 273.7568 145.666796 
L 273.986466 145.397161 
L 274.560631 144.654636 
L 274.847714 144.234892 
L 275.479295 142.929887 
L 276.512793 140.492982 
L 277.37404 138.552612 
L 279.785534 133.341922 
L 279.84295 133.411988 
L 280.761615 136.121347 
L 281.508029 138.444151 
L 281.737695 139.172576 
L 281.909945 139.190798 
L 282.369277 139.984299 
L 283.115692 141.129215 
L 283.402774 141.239195 
L 284.034356 141.739418 
L 284.436271 142.060029 
L 284.838187 142.335086 
L 285.010437 142.550707 
L 285.584602 143.468939 
L 286.388433 144.801927 
L 287.938679 148.886573 
L 288.340594 150.317393 
L 288.627677 151.546692 
L 289.029593 153.092046 
L 289.259259 153.594221 
L 289.89084 155.620926 
L 291.154004 158.851333 
L 291.728169 159.730736 
L 292.704249 160.980208 
L 293.163582 161.057216 
L 293.508081 161.12598 
L 293.909996 161.035741 
L 294.311912 160.925978 
L 295.17316 161.166328 
L 295.460242 161.147022 
L 296.723405 161.488024 
L 296.953072 161.621431 
L 297.182738 161.613838 
L 297.584653 161.730109 
L 297.929152 161.546809 
L 298.216235 161.337046 
L 299.421982 160.980208 
L 299.766481 160.747017 
L 300.168396 160.66155 
L 301.201894 160.605801 
L 301.776059 160.774566 
L 302.005725 160.911227 
L 302.57989 161.402122 
L 302.924389 161.450496 
L 303.154055 161.43401 
L 303.383721 161.310364 
L 303.90047 161.068062 
L 304.359802 160.850489 
L 304.532051 160.764805 
L 304.933967 160.561765 
L 306.19713 160.275211 
L 307.058378 159.69169 
L 307.919626 159.419452 
L 308.149292 159.333985 
L 308.378958 159.218149 
L 309.010539 158.700572 
L 309.412455 158.268246 
L 310.962701 157.134393 
L 311.422033 156.794476 
L 313.029695 154.977101 
L 313.546444 154.508766 
L 314.005776 154.207027 
L 314.063193 154.234576 
L 314.178026 154.651283 
L 314.981857 159.331382 
L 315.326356 160.672613 
L 316.015354 163.430129 
L 316.532103 164.83123 
L 317.508184 166.469861 
L 318.312015 167.521717 
L 318.771347 168.078557 
L 320.551259 168.74581 
L 320.780925 168.697436 
L 321.068007 168.533009 
L 321.297673 168.357085 
L 321.469923 168.352313 
L 321.699589 168.309796 
L 321.929255 168.159686 
L 322.158921 167.975736 
L 322.790503 166.930821 
L 323.192418 166.457279 
L 323.824 165.997621 
L 324.627831 165.893715 
L 325.374246 165.275487 
L 325.776162 165.154444 
L 326.235494 165.116917 
L 326.924492 165.084378 
L 327.211574 165.20477 
L 327.498657 165.11453 
L 328.015406 165.011926 
L 328.245072 164.838388 
L 328.417321 164.759429 
L 328.646987 164.639254 
L 328.819237 164.63318 
L 329.048903 164.47808 
L 329.335985 164.578949 
L 330.25465 164.114736 
L 330.541732 164.148359 
L 332.55131 162.20083 
L 333.068059 161.496917 
L 333.125475 161.614706 
L 333.355141 161.924905 
L 334.04414 163.807357 
L 334.273806 164.317124 
L 334.847971 164.654004 
L 335.135053 164.632529 
L 335.307303 164.613657 
L 335.881468 163.908009 
L 336.111134 163.627745 
L 336.3408 163.435769 
L 336.627883 163.010818 
L 336.914965 162.87958 
L 337.087215 164.092176 
L 337.374297 165.72495 
L 337.948463 166.738411 
L 338.407795 166.395457 
L 338.867127 166.801318 
L 339.154209 166.352506 
L 339.326459 166.226474 
L 339.556125 166.006732 
L 339.728374 165.992849 
L 339.843207 165.861177 
L 340.072874 165.636662 
L 340.359956 165.357267 
L 340.876705 164.740123 
L 342.541784 164.420596 
L 342.714033 164.395867 
L 343.058532 164.172003 
L 343.403031 164.033173 
L 343.804947 163.927749 
L 344.953277 163.533384 
L 345.24036 163.367872 
L 346.159024 162.68435 
L 346.733189 162.126643 
L 347.70927 161.484336 
L 347.938936 161.343987 
L 348.283435 161.222294 
L 348.685351 161.081294 
L 349.02985 160.476949 
L 349.374349 161.208845 
L 349.891097 162.698667 
L 350.580096 165.492843 
L 350.809762 166.363569 
L 351.958092 171.054948 
L 353.221255 173.524608 
L 354.484419 174.899678 
L 355.403083 175.03135 
L 356.206914 174.839157 
L 357.125578 174.340019 
L 357.412661 174.181666 
L 358.790657 173.823093 
L 358.962907 173.867345 
L 359.594488 173.572548 
L 360.111237 172.975144 
L 360.513153 172.908332 
L 361.489233 171.948667 
L 361.604066 171.898558 
L 362.005982 171.462328 
L 363.383978 170.129991 
L 363.900727 169.535407 
L 364.245226 169.318485 
L 364.474892 169.168157 
L 364.934224 168.719779 
L 365.16389 168.467715 
L 365.393556 168.219556 
L 365.623222 168.043849 
L 365.967721 167.801764 
L 366.48447 167.802632 
L 367.517967 167.152732 
L 368.321798 166.114325 
L 369.757211 164.557691 
L 370.905542 163.993042 
L 371.077791 163.914299 
L 371.996455 163.064615 
L 372.340954 162.226644 
L 375.154364 158.890813 
L 375.900778 157.834618 
L 376.130444 157.53353 
L 377.221358 155.829172 
L 377.738107 154.973847 
L 378.254855 154.249326 
L 379.058687 153.551704 
L 379.17352 153.529144 
L 379.575435 153.14107 
L 379.805101 153.178381 
L 380.1496 152.703972 
L 380.379266 152.476637 
L 380.608932 152.360367 
L 381.125681 152.04301 
L 381.297931 152.096156 
L 381.412764 152.219801 
L 381.872096 153.430011 
L 382.159178 154.278394 
L 382.274011 154.279479 
L 382.561094 155.047384 
L 382.79076 155.822881 
L 382.848177 155.72635 
L 383.307509 154.091841 
L 383.479758 153.918737 
L 383.652008 154.698139 
L 383.996507 156.009217 
L 384.341006 156.406402 
L 384.742921 157.566936 
L 385.546753 160.545713 
L 387.556331 165.704776 
L 388.073079 166.531467 
L 389.04916 169.221954 
L 389.680742 170.890304 
L 390.599406 172.743471 
L 391.288404 173.50682 
L 391.632903 174.231124 
L 392.149652 175.496432 
L 392.321901 175.677345 
L 393.240566 177.432246 
L 393.585065 177.822923 
L 393.872147 178.2559 
L 394.101813 178.583887 
L 394.561145 179.650494 
L 394.963061 179.50624 
L 395.192727 179.59366 
L 395.364977 179.449624 
L 395.594643 179.186063 
L 396.168808 178.339198 
L 396.513307 177.888434 
L 397.833887 175.198597 
L 398.235802 174.256287 
L 398.752551 173.279052 
L 399.2693 172.17188 
L 399.786048 170.884013 
L 400.589879 168.393745 
L 401.393711 166.064867 
L 401.967876 164.608885 
L 402.542041 163.234465 
L 402.829123 162.631421 
L 404.494202 157.772362 
L 407.192778 151.866218 
L 407.939193 150.242772 
L 411.499017 140.661748 
L 412.130599 140.135277 
L 412.360265 139.969549 
L 412.475098 139.932021 
L 412.647347 139.796878 
L 412.819597 139.797095 
L 413.221512 139.552841 
L 413.393762 139.534836 
L 414.944008 136.780791 
L 415.40334 135.879262 
L 415.977505 134.784672 
L 417.585168 130.999161 
L 418.0445 129.186775 
L 418.274166 129.265301 
L 418.561248 129.379402 
L 419.077997 130.236679 
L 419.250246 130.269217 
L 419.766995 130.67291 
L 420.111494 130.705665 
L 420.455993 130.842543 
L 420.628243 130.818898 
L 422.178489 132.38421 
L 422.522988 132.563821 
L 423.097153 132.217613 
L 423.786151 131.718475 
L 424.475149 131.803292 
L 424.762232 132.013273 
L 425.393813 132.592889 
L 426.025395 133.533681 
L 426.542144 134.369483 
L 427.001476 135.017646 
L 427.403391 135.145414 
L 427.690474 135.196173 
L 428.264639 136.130024 
L 428.896221 136.080132 
L 429.125887 136.102909 
L 429.412969 135.929805 
L 429.700052 135.762991 
L 430.101968 136.06473 
L 430.274217 136.164515 
L 430.618716 136.025034 
L 430.848382 136.096184 
L 431.53738 135.567544 
L 431.767046 135.361685 
L 432.111546 134.888578 
L 432.513461 134.33868 
L 432.685711 134.28792 
L 432.972793 134.182279 
L 433.317292 134.095076 
L 433.489542 134.083362 
L 433.604375 134.014598 
L 434.063707 134.172734 
L 434.235957 134.240631 
L 434.810122 134.766017 
L 435.039788 135.02654 
L 435.212037 134.995954 
L 435.613953 134.918296 
L 435.843619 135.128711 
L 436.073285 135.1337 
L 436.360368 134.962114 
L 436.704867 135.253875 
L 437.164199 136.291848 
L 437.451281 136.491417 
L 437.566114 136.564736 
L 437.738364 136.643262 
L 437.96803 136.626993 
L 438.369946 136.696842 
L 439.058944 136.356057 
L 439.28861 136.64413 
L 440.43694 138.650444 
L 441.011105 138.874959 
L 441.355604 138.742202 
L 441.75752 138.337425 
L 442.044603 138.474303 
L 442.331685 138.490572 
L 443.135516 137.408781 
L 443.652265 137.261274 
L 444.972845 136.263648 
L 445.661843 136.33328 
L 445.776676 136.348465 
L 446.006342 136.306599 
L 446.408258 136.58491 
L 446.580507 136.517664 
L 446.69534 136.592285 
L 446.810173 136.546298 
L 446.925006 136.789251 
L 446.982423 136.752808 
L 447.269505 136.24803 
L 447.614004 136.861052 
L 447.786254 137.178626 
L 447.958503 137.114851 
L 448.245586 137.77538 
L 449.221667 140.541573 
L 449.508749 141.065006 
L 449.738415 140.832032 
L 449.910665 140.825524 
L 450.255164 140.693852 
L 450.369997 140.639188 
L 450.771913 140.243521 
L 451.001579 140.040265 
L 451.231245 139.991241 
L 451.575744 140.068248 
L 451.690577 140.223131 
L 451.747993 145.174165 
L 451.862826 255.524924 
L 451.977659 242.597223 
L 452.149909 284.830909 
L 452.264742 257.796968 
L 452.322159 266.689047 
L 452.379575 269.127687 
L 452.436992 267.039376 
L 452.609241 252.72706 
L 452.666658 252.561982 
L 452.724074 258.024953 
L 452.896324 248.613346 
L 452.95374 250.134405 
L 453.011157 249.729194 
L 453.872404 155.68622 
L 454.676236 97.608746 
L 455.192984 82.693385 
L 455.42265 79.746713 
L 455.939399 69.586506 
L 456.341314 65.223331 
L 456.628397 63.104651 
L 457.317395 56.834729 
L 457.374812 56.729956 
L 458.350892 50.846155 
L 458.408309 50.787803 
L 458.867641 48.757194 
L 459.441806 47.275397 
L 459.499223 47.371494 
L 459.786305 46.69166 
L 460.130804 46.035686 
L 460.188221 46.149354 
L 460.245637 46.028745 
L 460.590137 45.483402 
L 461.049469 44.835889 
L 461.106885 44.815499 
L 461.279135 44.547383 
L 461.393968 44.475364 
L 461.451384 44.53697 
L 461.623634 44.286208 
L 462.484882 43.102029 
L 462.657131 42.899424 
L 462.886797 42.525884 
L 463.633212 41.676199 
L 463.805461 41.507217 
L 464.494459 40.717403 
L 464.666709 40.476402 
L 464.781542 40.454059 
L 464.953792 40.210021 
L 465.011208 40.357528 
L 465.068625 40.22 
L 465.413124 39.953619 
L 465.47054 40.165335 
L 465.64279 39.879649 
L 465.700206 39.953185 
L 465.872456 39.662943 
L 465.987289 39.664245 
L 466.159538 39.42216 
L 466.216955 39.531488 
L 466.274371 39.264457 
L 466.331788 39.305021 
L 466.561454 39.153827 
L 466.733704 38.86532 
L 466.79112 38.962935 
L 466.848537 38.873563 
L 467.020786 38.583755 
L 467.135619 38.795688 
L 467.307869 38.477029 
L 467.824617 38.15555 
L 467.882034 38.292428 
L 467.93945 38.148826 
L 468.054283 38.218675 
L 468.1117 38.00826 
L 468.169116 38.116721 
L 468.341366 37.957283 
L 468.398782 38.0421 
L 468.456199 37.799147 
L 468.513615 37.916068 
L 469.145197 37.520185 
L 469.374863 37.224303 
L 469.43228 37.282655 
L 469.489696 36.960959 
L 469.547113 37.004127 
L 469.604529 37.044908 
L 469.719362 36.880047 
L 469.776779 36.903692 
L 470.006445 36.509544 
L 470.063861 36.714752 
L 470.121278 36.601085 
L 470.178694 36.6282 
L 470.236111 36.484815 
L 470.293527 36.54577 
L 470.350944 36.646205 
L 470.40836 36.213445 
L 470.465777 36.365507 
L 470.523193 36.460302 
L 470.695443 36.083725 
L 470.75286 36.217133 
L 470.810276 36.058129 
L 470.867693 36.105418 
L 471.269608 35.880252 
L 471.327025 35.762897 
L 471.384441 35.812356 
L 471.441858 35.874395 
L 471.499274 35.63795 
L 471.556691 35.675911 
L 471.72894 35.717561 
L 471.90119 35.451397 
L 472.016023 35.583286 
L 472.188272 35.461809 
L 472.360522 35.361374 
L 472.417938 35.216687 
L 472.475355 35.454868 
L 472.532771 35.195862 
L 472.590188 35.287404 
L 472.705021 35.137727 
L 472.762438 35.354866 
L 472.819854 35.15725 
L 473.394019 35.022541 
L 473.853351 34.783927 
L 474.025601 34.873733 
L 474.140434 34.706269 
L 474.19785 34.883711 
L 474.255267 34.701063 
L 474.427516 34.706486 
L 474.657182 34.683492 
L 474.714599 34.364399 
L 474.829432 34.70475 
L 474.886849 34.456808 
L 474.944265 34.609521 
L 475.173931 34.366135 
L 475.231348 34.529694 
L 475.288764 34.500626 
L 475.51843 34.313639 
L 475.920346 34.353119 
L 475.977762 34.41863 
L 476.150012 34.075242 
L 476.264845 34.161143 
L 476.322261 33.978278 
L 476.437094 34.159408 
L 476.551927 34.072856 
L 476.609344 34.142054 
L 476.724177 33.835326 
L 476.781594 33.906693 
L 476.83901 34.067216 
L 476.896427 33.872853 
L 476.953843 33.907127 
L 477.01126 34.061359 
L 477.126093 33.84422 
L 477.183509 33.923396 
L 477.240926 33.808644 
L 477.298342 33.970251 
L 477.355759 33.74552 
L 477.413175 33.795195 
L 477.528008 33.798666 
L 477.585425 33.936628 
L 477.642841 33.856367 
L 477.815091 33.83923 
L 477.929924 33.696929 
L 477.98734 33.815152 
L 478.044757 33.767646 
L 478.676338 33.616234 
L 478.848588 33.716018 
L 479.078254 33.58131 
L 479.250504 33.732505 
L 479.30792 33.534021 
L 479.365337 33.656582 
L 479.422753 33.759403 
L 479.48017 33.670248 
L 479.595003 33.604737 
L 479.652419 33.617319 
L 479.767252 33.807126 
L 479.824669 33.755281 
L 479.882085 33.561136 
L 479.939502 33.602568 
L 480.054335 33.694326 
L 480.169168 33.564173 
L 480.341417 33.682396 
L 480.398834 33.58695 
L 480.6285 282.384893 
L 480.915583 140.524002 
L 480.972999 121.418137 
L 481.030416 155.462573 
L 481.087832 153.12068 
L 481.260082 97.242798 
L 481.374915 96.972946 
L 481.547164 85.107297 
L 481.604581 85.467171 
L 481.719414 84.012924 
L 481.77683 84.160431 
L 481.834247 84.897967 
L 482.523245 49.107957 
L 483.09741 29.266508 
L 483.154827 23.893777 
L 483.212243 27.021579 
L 483.26966 29.302517 
L 483.327076 25.608765 
L 483.384493 26.125907 
L 483.441909 30.540059 
L 483.499326 28.47843 
L 483.556742 26.986655 
L 483.614159 27.09273 
L 483.671575 27.7179 
L 483.728992 25.793582 
L 483.786408 27.844149 
L 483.843825 23.849091 
L 483.901241 26.331333 
L 483.958658 28.066277 
L 484.016074 26.941101 
L 484.073491 27.265834 
L 484.130907 26.531552 
L 484.188324 26.987957 
L 484.24574 28.0435 
L 484.303157 25.530239 
L 484.41799 28.751535 
L 484.475406 27.640459 
L 484.532823 27.660416 
L 484.590239 28.403375 
L 484.647656 25.962999 
L 484.705072 27.636988 
L 484.762489 27.087741 
L 484.819905 27.162145 
L 484.877322 27.981895 
L 484.934738 27.247396 
L 485.049572 26.709645 
L 485.106988 27.461932 
L 485.164405 27.006612 
L 485.221821 27.363666 
L 485.279238 26.726348 
L 485.336654 26.986872 
L 485.451487 27.491433 
L 485.508904 26.421572 
L 485.56632 27.725275 
L 485.623737 27.05889 
L 485.795986 27.712694 
L 485.853403 28.343287 
L 485.968236 26.893595 
L 486.025652 27.676034 
L 486.083069 27.647183 
L 486.140485 27.669526 
L 486.197902 27.255422 
L 486.255318 27.457593 
L 486.427568 27.305097 
L 486.484984 27.388612 
L 486.542401 27.052382 
L 486.599817 27.329175 
L 486.657234 27.925278 
L 486.71465 27.162796 
L 486.772067 27.554775 
L 486.829483 27.22809 
L 486.8869 27.246094 
L 487.001733 27.69816 
L 487.116566 26.682096 
L 487.173983 27.915733 
L 487.231399 27.258892 
L 487.346232 27.121147 
L 487.518482 27.493169 
L 487.575898 27.397289 
L 487.633315 27.813997 
L 487.690731 27.338503 
L 487.748148 27.764321 
L 487.862981 27.708355 
L 488.03523 26.918541 
L 488.092647 27.797077 
L 488.150063 27.11529 
L 488.20748 27.042838 
L 488.264896 27.498158 
L 488.322313 27.054769 
L 488.379729 27.529178 
L 488.437146 27.481238 
L 488.666812 27.089259 
L 488.781645 27.66714 
L 488.839061 27.272776 
L 488.896478 27.506401 
L 488.953894 27.462366 
L 489.068728 27.268437 
L 489.126144 27.468439 
L 489.183561 27.331995 
L 489.240977 27.358677 
L 489.298394 27.509655 
L 489.35581 27.18297 
L 489.413227 27.284706 
L 489.470643 27.573864 
L 489.585476 27.159108 
L 489.757726 27.43178 
L 489.815142 27.263231 
L 489.987392 27.846969 
L 490.044808 27.245226 
L 490.102225 27.342408 
L 490.159641 27.942632 
L 490.217058 27.231126 
L 490.274474 27.396638 
L 490.331891 27.968228 
L 490.389307 27.530262 
L 490.446724 27.606836 
L 490.618973 27.373211 
L 490.67639 27.309435 
L 490.733806 27.653908 
L 490.791223 27.325705 
L 490.906056 27.592302 
L 491.078305 27.197287 
L 491.135722 27.577334 
L 491.193139 27.377549 
L 491.307972 27.527659 
L 491.365388 27.184705 
L 491.422805 27.41486 
L 491.537638 27.443927 
L 491.709887 27.727011 
L 491.82472 27.415944 
L 491.882137 27.714429 
L 491.939553 27.430912 
L 491.99697 27.623322 
L 492.054386 27.36692 
L 492.111803 27.755645 
L 492.169219 27.543061 
L 492.226636 27.64176 
L 492.341469 27.16605 
L 492.398885 27.365184 
L 492.456302 27.10965 
L 492.513718 27.477767 
L 492.571135 27.069302 
L 492.628551 27.169954 
L 492.685968 27.380369 
L 492.743384 27.20336 
L 492.800801 27.026569 
L 492.915634 27.382755 
L 492.97305 27.298155 
L 493.030467 27.41204 
L 493.087883 27.276029 
L 493.1453 27.448049 
L 493.202717 27.130258 
L 493.260133 27.609439 
L 493.31755 27.305531 
L 493.374966 27.408569 
L 493.432383 26.92852 
L 493.489799 27.509221 
L 493.547216 27.374078 
L 493.604632 27.449133 
L 493.662049 27.385575 
L 493.719465 27.192948 
L 493.776882 27.693822 
L 493.834298 26.933726 
L 493.891715 27.128088 
L 494.006548 27.478201 
L 494.121381 27.159325 
L 494.178797 27.591001 
L 494.236214 26.918324 
L 494.29363 27.425055 
L 494.351047 27.499025 
L 494.408463 27.064313 
L 494.46588 27.250649 
L 494.523296 27.252602 
L 494.580713 26.983401 
L 494.638129 27.352169 
L 494.695546 27.330043 
L 494.752962 27.04761 
L 494.810379 27.301192 
L 494.867795 27.502062 
L 494.925212 27.21117 
L 494.982628 27.308568 
L 495.040045 27.574298 
L 495.212295 27.211387 
L 495.269711 27.580154 
L 495.384544 26.848259 
L 495.441961 27.646316 
L 495.499377 27.478201 
L 495.61421 27.049129 
L 495.671627 27.462583 
L 495.729043 27.141104 
L 495.901293 27.378634 
L 496.016126 27.066049 
L 496.073542 27.41768 
L 496.130959 27.320282 
L 496.188375 27.029389 
L 496.245792 27.399675 
L 496.303208 27.241973 
L 496.360625 27.210302 
L 496.532874 27.354772 
L 496.590291 27.184705 
L 496.647707 27.337635 
L 496.705124 27.520284 
L 496.76254 27.428092 
L 496.877373 27.406617 
L 496.93479 27.558028 
L 497.049623 27.245877 
L 497.107039 27.617899 
L 497.164456 27.501195 
L 497.279289 27.316377 
L 497.336706 27.540891 
L 497.394122 27.507485 
L 497.451539 27.304663 
L 497.508955 27.527442 
L 497.566372 27.459763 
L 497.853454 27.274294 
L 497.968287 27.465403 
L 498.140537 27.295552 
L 498.197953 27.20271 
L 498.370203 27.470175 
L 498.427619 27.264099 
L 498.485036 27.401844 
L 498.542452 27.517681 
L 498.599869 27.433732 
L 498.714702 27.350651 
L 498.886951 27.50293 
L 498.944368 27.323535 
L 499.001784 27.441107 
L 499.059201 27.499676 
L 499.116617 27.313774 
L 499.174034 27.44089 
L 499.346284 27.318112 
L 499.4037 27.697943 
L 499.461117 27.460196 
L 499.748199 27.384707 
L 499.920449 27.674082 
L 500.092698 27.430044 
L 500.150115 27.580588 
L 500.207531 27.527659 
L 500.379781 27.515295 
L 500.437197 27.623539 
L 500.494614 27.491433 
L 500.55203 27.55933 
L 500.666863 27.471042 
L 500.72428 27.464318 
L 500.781696 27.616164 
L 500.839113 27.453689 
L 500.896529 27.63547 
L 500.953946 27.559981 
L 501.068779 27.44089 
L 501.183612 27.575599 
L 501.355862 27.41768 
L 501.470695 27.566705 
L 501.585528 27.286008 
L 501.642944 27.493602 
L 501.700361 27.454339 
L 502.159693 27.381237 
L 502.217109 27.518548 
L 502.331942 27.283188 
L 502.389359 27.446747 
L 502.446775 27.421367 
L 502.561608 27.38948 
L 502.619025 27.536987 
L 502.676441 27.36692 
L 502.733858 27.492518 
L 502.848691 27.341106 
L 502.963524 27.453255 
L 503.02094 27.338286 
L 503.078357 27.382104 
L 503.135773 27.535902 
L 503.19319 27.442409 
L 503.250606 27.338937 
L 503.308023 27.425706 
L 503.36544 27.497073 
L 503.422856 27.423537 
L 503.480273 27.315292 
L 503.537689 27.489915 
L 503.652522 27.315075 
L 503.767355 27.474296 
L 503.939605 27.329392 
L 504.111854 27.453689 
L 504.284104 27.389697 
L 504.34152 27.526575 
L 504.398937 27.384491 
L 504.571186 27.467789 
L 504.743436 27.373211 
L 504.915685 27.415077 
L 505.087935 27.287743 
L 505.375017 27.304446 
L 505.547267 27.230042 
L 505.6621 27.295119 
L 505.776933 27.239153 
L 505.83435 27.435467 
L 505.891766 27.272992 
L 506.006599 27.408135 
L 506.064016 27.359544 
L 507.384595 27.458244 
L 507.442012 27.361497 
L 507.499429 27.477984 
L 507.614262 27.495772 
L 507.729095 27.459546 
L 507.958761 27.487746 
L 508.016177 27.409653 
L 508.073594 27.480587 
L 508.245843 27.46345 
L 508.30326 27.364534 
L 508.360676 27.413992 
L 508.762592 27.415293 
L 508.992258 27.379284 
L 509.107091 27.464101 
L 509.107091 27.464101 
" clip-path="url(#p8115a164a2)" style="fill: none; stroke: #008000; stroke-width: 2; stroke-linecap: square"/>
   </g>
   <g id="line2d_9">
    <path d="M 87.156 27.463797 
L 529.2 27.463797 
" clip-path="url(#p8115a164a2)" style="fill: none; stroke-dasharray: 10,10; stroke-dashoffset: 0; stroke: #000000; stroke-width: 2"/>
   </g>
   <g id="patch_3">
    <path d="M 87.156 297.88 
L 87.156 10.8 
" style="fill: none; stroke: #000000; stroke-width: 0.8; stroke-linejoin: miter; stroke-linecap: square"/>
   </g>
   <g id="patch_4">
    <path d="M 529.2 297.88 
L 529.2 10.8 
" style="fill: none; stroke: #000000; stroke-width: 0.8; stroke-linejoin: miter; stroke-linecap: square"/>
   </g>
   <g id="patch_5">
    <path d="M 87.156 297.88 
L 529.2 297.88 
" style="fill: none; stroke: #000000; stroke-width: 0.8; stroke-linejoin: miter; stroke-linecap: square"/>
   </g>
   <g id="patch_6">
    <path d="M 87.156 10.8 
L 529.2 10.8 
" style="fill: none; stroke: #000000; stroke-width: 0.8; stroke-linejoin: miter; stroke-linecap: square"/>
   </g>
  </g>
 </g>
 <defs>
  <clipPath id="p8115a164a2">
   <rect x="87.156" y="10.8" width="442.044" height="287.08"/>
  </clipPath>
 </defs>
</svg>
