<?xml version="1.0" encoding="utf-8" standalone="no"?>
<!DOCTYPE svg PUBLIC "-//W3C//DTD SVG 1.1//EN"
  "http://www.w3.org/Graphics/SVG/1.1/DTD/svg11.dtd">
<svg xmlns:xlink="http://www.w3.org/1999/xlink" width="533.750703pt" height="350.945672pt" viewBox="0 0 533.750703 350.945672" xmlns="http://www.w3.org/2000/svg" version="1.1">
 <metadata>
  <rdf:RDF xmlns:dc="http://purl.org/dc/elements/1.1/" xmlns:cc="http://creativecommons.org/ns#" xmlns:rdf="http://www.w3.org/1999/02/22-rdf-syntax-ns#">
   <cc:Work>
    <dc:type rdf:resource="http://purl.org/dc/dcmitype/StillImage"/>
    <dc:date>2026-10-01T18:45:46.299599</dc:date>
    <dc:format>image/svg+xml</dc:format>
    <dc:creator>
     <cc:Agent>
      <dc:title>Matplotlib v3.10.7, https://matplotlib.org/</dc:title>
     </cc:Agent>
    </dc:creator>
   </cc:Work>
  </rdf:RDF>
 </metadata>
 <defs>
  <style type="text/css">*{stroke-linejoin: round; stroke-linecap: butt}</style>
 </defs>
 <g id="figure_1">
  <g id="patch_1">
   <path d="M 0 350.945672 
L 533.750703 350.945672 
L 533.750703 0 
L 0 0 
z
" style="fill: #ffffff"/>
  </g>
  <g id="axes_1">
   <g id="patch_2">
    <path d="M 50.466094 305.770984 
L 517.411094 305.770984 
L 517.411094 12.138984 
L 50.466094 12.138984 
z
" style="fill: #ffffff"/>
   </g>
   <g id="line2d_1">
    <path d="M 64.894445 -1 
L 67.851896 11.467148 
L 71.559369 26.311255 
L 75.266842 40.355567 
L 78.974315 53.655168 
L 82.681788 66.26011 
L 86.389261 78.21597 
L 90.096734 89.564339 
L 93.804207 100.343246 
L 97.51168 110.587529 
L 101.219153 120.329158 
L 104.926626 129.597528 
L 109.869924 141.265649 
L 114.813221 152.198735 
L 119.756519 162.449393 
L 124.699816 172.065098 
L 129.643114 181.0888 
L 134.586411 189.559442 
L 139.529708 197.51241 
L 144.473006 204.979926 
L 149.416303 211.991384 
L 154.359601 218.573649 
L 159.302898 224.751321 
L 164.246196 230.546956 
L 169.189493 235.981275 
L 174.132791 241.073335 
L 179.076088 245.840694 
L 184.019385 250.299545 
L 188.962683 254.464844 
L 193.90598 258.350419 
L 198.849278 261.96907 
L 203.792575 265.332659 
L 208.735873 268.452186 
L 213.67917 271.337866 
L 218.622468 273.999188 
L 223.565765 276.444979 
L 228.509062 278.683452 
L 233.45236 280.722254 
L 239.631482 283.000782 
L 245.810604 284.991294 
L 251.989725 286.70559 
L 258.168847 288.154494 
L 264.347969 289.34794 
L 270.527091 290.295051 
L 276.706213 291.004204 
L 282.885334 291.483095 
L 289.064456 291.73879 
L 295.243578 291.77778 
L 301.4227 291.606022 
L 307.601822 291.228981 
L 313.780943 290.651666 
L 319.960065 289.878663 
L 326.139187 288.91417 
L 333.554133 287.509378 
L 340.969079 285.840317 
L 348.384025 283.912316 
L 355.798972 281.730111 
L 363.213918 279.297883 
L 370.628864 276.619302 
L 378.04381 273.697566 
L 385.458756 270.53543 
L 392.873702 267.135238 
L 400.288649 263.498948 
L 407.703595 259.628163 
L 415.118541 255.524145 
L 422.533487 251.18784 
L 429.948433 246.619895 
L 437.363379 241.820676 
L 444.778326 236.790283 
L 453.429096 230.629093 
L 462.079867 224.152376 
L 470.730637 217.359057 
L 479.381408 210.247665 
L 488.032178 202.816352 
L 496.682949 195.062911 
L 505.333719 186.984794 
L 513.98449 178.579125 
L 522.63526 169.842715 
L 531.286031 160.772073 
L 534.750703 157.044118 
L 534.750703 157.044118 
" clip-path="url(#p3a6240b524)" style="fill: none; stroke-dasharray: 1.2,1.98; stroke-dashoffset: 0; stroke: #999999; stroke-width: 1.2"/>
   </g>
   <g id="matplotlib.axis_1">
    <g id="xtick_1">
     <g id="line2d_2">
      <defs>
       <path id="m39108e66b1" d="M 0 0 
L 0 3.5 
" style="stroke: #000000; stroke-width: 0.8"/>
      </defs>
      <g>
       <use xlink:href="#m39108e66b1" x="69.143894" y="305.770984" style="stroke: #000000; stroke-width: 0.8"/>
      </g>
     </g>
     <g id="text_1">
      <!-- 0.4 -->
      <g transform="translate(60.004284 322.648953) scale(0.13 -0.13)">
       <defs>
        <path id="OpenSans-Regular-30" d="M 3334 2291 
Q 3334 1734 3250 1296 
Q 3166 859 2984 556 
Q 2803 253 2515 95 
Q 2228 -63 1825 -63 
Q 1316 -63 983 215 
Q 650 494 486 1020 
Q 322 1547 322 2291 
Q 322 3022 470 3548 
Q 619 4075 950 4358 
Q 1281 4641 1825 4641 
Q 2341 4641 2675 4361 
Q 3009 4081 3171 3554 
Q 3334 3028 3334 2291 
z
M 844 2291 
Q 844 1653 941 1228 
Q 1038 803 1255 592 
Q 1472 381 1825 381 
Q 2178 381 2395 590 
Q 2613 800 2711 1225 
Q 2809 1650 2809 2291 
Q 2809 2919 2712 3342 
Q 2616 3766 2400 3980 
Q 2184 4194 1825 4194 
Q 1466 4194 1250 3980 
Q 1034 3766 939 3342 
Q 844 2919 844 2291 
z
" transform="scale(0.015625)"/>
        <path id="OpenSans-Regular-2e" d="M 469 325 
Q 469 544 575 636 
Q 681 728 834 728 
Q 994 728 1103 636 
Q 1213 544 1213 325 
Q 1213 109 1103 10 
Q 994 -88 834 -88 
Q 681 -88 575 10 
Q 469 109 469 325 
z
" transform="scale(0.015625)"/>
        <path id="OpenSans-Regular-34" d="M 3538 1059 
L 2853 1059 
L 2853 0 
L 2347 0 
L 2347 1059 
L 138 1059 
L 138 1497 
L 2313 4594 
L 2853 4594 
L 2853 1528 
L 3538 1528 
L 3538 1059 
z
M 2347 1528 
L 2347 3022 
Q 2347 3194 2350 3333 
Q 2353 3472 2359 3592 
Q 2366 3713 2370 3822 
Q 2375 3931 2378 4038 
L 2353 4038 
Q 2294 3913 2217 3773 
Q 2141 3634 2063 3525 
L 653 1528 
L 2347 1528 
z
" transform="scale(0.015625)"/>
       </defs>
       <use xlink:href="#OpenSans-Regular-30"/>
       <use xlink:href="#OpenSans-Regular-2e" transform="translate(57.177734 0)"/>
       <use xlink:href="#OpenSans-Regular-34" transform="translate(83.447266 0)"/>
      </g>
     </g>
    </g>
    <g id="xtick_2">
     <g id="line2d_3">
      <g>
       <use xlink:href="#m39108e66b1" x="143.855094" y="305.770984" style="stroke: #000000; stroke-width: 0.8"/>
      </g>
     </g>
     <g id="text_2">
      <!-- 0.6 -->
      <g transform="translate(134.715484 322.648953) scale(0.13 -0.13)">
       <defs>
        <path id="OpenSans-Regular-36" d="M 363 1953 
Q 363 2366 420 2759 
Q 478 3153 615 3492 
Q 753 3831 990 4087 
Q 1228 4344 1583 4489 
Q 1938 4634 2434 4634 
Q 2575 4634 2737 4620 
Q 2900 4606 3006 4575 
L 3006 4128 
Q 2891 4169 2742 4187 
Q 2594 4206 2444 4206 
Q 1863 4206 1530 3953 
Q 1197 3700 1050 3267 
Q 903 2834 881 2294 
L 916 2294 
Q 1013 2450 1163 2576 
Q 1313 2703 1527 2778 
Q 1741 2853 2025 2853 
Q 2425 2853 2723 2690 
Q 3022 2528 3186 2218 
Q 3350 1909 3350 1469 
Q 3350 997 3175 653 
Q 3000 309 2676 123 
Q 2353 -63 1906 -63 
Q 1572 -63 1290 65 
Q 1009 194 801 447 
Q 594 700 478 1076 
Q 363 1453 363 1953 
z
M 1900 375 
Q 2325 375 2581 647 
Q 2838 919 2838 1469 
Q 2838 1919 2609 2181 
Q 2381 2444 1922 2444 
Q 1609 2444 1378 2314 
Q 1147 2184 1019 1987 
Q 891 1791 891 1588 
Q 891 1381 952 1168 
Q 1013 956 1138 775 
Q 1263 594 1453 484 
Q 1644 375 1900 375 
z
" transform="scale(0.015625)"/>
       </defs>
       <use xlink:href="#OpenSans-Regular-30"/>
       <use xlink:href="#OpenSans-Regular-2e" transform="translate(57.177734 0)"/>
       <use xlink:href="#OpenSans-Regular-36" transform="translate(83.447266 0)"/>
      </g>
     </g>
    </g>
    <g id="xtick_3">
     <g id="line2d_4">
      <g>
       <use xlink:href="#m39108e66b1" x="218.566294" y="305.770984" style="stroke: #000000; stroke-width: 0.8"/>
      </g>
     </g>
     <g id="text_3">
      <!-- 0.8 -->
      <g transform="translate(209.426684 322.648953) scale(0.13 -0.13)">
       <defs>
        <path id="OpenSans-Regular-38" d="M 1825 4634 
Q 2222 4634 2528 4509 
Q 2834 4384 3007 4142 
Q 3181 3900 3181 3547 
Q 3181 3269 3061 3061 
Q 2941 2853 2737 2698 
Q 2534 2544 2288 2422 
Q 2581 2288 2817 2119 
Q 3053 1950 3190 1722 
Q 3328 1494 3328 1181 
Q 3328 797 3142 517 
Q 2956 238 2622 87 
Q 2288 -63 1838 -63 
Q 1353 -63 1014 82 
Q 675 228 498 501 
Q 322 775 322 1159 
Q 322 1475 456 1708 
Q 591 1941 812 2109 
Q 1034 2278 1297 2394 
Q 1069 2519 880 2678 
Q 691 2838 580 3052 
Q 469 3266 469 3550 
Q 469 3897 645 4139 
Q 822 4381 1130 4507 
Q 1438 4634 1825 4634 
z
M 831 1156 
Q 831 806 1078 579 
Q 1325 353 1825 353 
Q 2300 353 2559 579 
Q 2819 806 2819 1175 
Q 2819 1403 2700 1576 
Q 2581 1750 2362 1887 
Q 2144 2025 1847 2138 
L 1734 2178 
Q 1447 2059 1245 1914 
Q 1044 1769 937 1584 
Q 831 1400 831 1156 
z
M 1819 4209 
Q 1450 4209 1215 4032 
Q 981 3856 981 3525 
Q 981 3288 1095 3123 
Q 1209 2959 1406 2842 
Q 1603 2725 1847 2625 
Q 2084 2725 2268 2845 
Q 2453 2966 2559 3131 
Q 2666 3297 2666 3528 
Q 2666 3859 2433 4034 
Q 2200 4209 1819 4209 
z
" transform="scale(0.015625)"/>
       </defs>
       <use xlink:href="#OpenSans-Regular-30"/>
       <use xlink:href="#OpenSans-Regular-2e" transform="translate(57.177734 0)"/>
       <use xlink:href="#OpenSans-Regular-38" transform="translate(83.447266 0)"/>
      </g>
     </g>
    </g>
    <g id="xtick_4">
     <g id="line2d_5">
      <g>
       <use xlink:href="#m39108e66b1" x="293.277494" y="305.770984" style="stroke: #000000; stroke-width: 0.8"/>
      </g>
     </g>
     <g id="text_4">
      <!-- 1.0 -->
      <g transform="translate(284.137884 322.648953) scale(0.13 -0.13)">
       <defs>
        <path id="OpenSans-Regular-31" d="M 2247 0 
L 1741 0 
L 1741 3238 
Q 1741 3422 1742 3555 
Q 1744 3688 1748 3798 
Q 1753 3909 1763 4025 
Q 1666 3925 1581 3854 
Q 1497 3784 1372 3681 
L 850 3263 
L 578 3616 
L 1816 4569 
L 2247 4569 
L 2247 0 
z
" transform="scale(0.015625)"/>
       </defs>
       <use xlink:href="#OpenSans-Regular-31"/>
       <use xlink:href="#OpenSans-Regular-2e" transform="translate(57.177734 0)"/>
       <use xlink:href="#OpenSans-Regular-30" transform="translate(83.447266 0)"/>
      </g>
     </g>
    </g>
    <g id="xtick_5">
     <g id="line2d_6">
      <g>
       <use xlink:href="#m39108e66b1" x="367.988694" y="305.770984" style="stroke: #000000; stroke-width: 0.8"/>
      </g>
     </g>
     <g id="text_5">
      <!-- 1.2 -->
      <g transform="translate(358.849084 322.648953) scale(0.13 -0.13)">
       <defs>
        <path id="OpenSans-Regular-32" d="M 3309 0 
L 316 0 
L 316 434 
L 1538 1675 
Q 1878 2019 2111 2287 
Q 2344 2556 2466 2817 
Q 2588 3078 2588 3391 
Q 2588 3778 2358 3983 
Q 2128 4188 1753 4188 
Q 1425 4188 1172 4075 
Q 919 3963 653 3756 
L 375 4106 
Q 556 4259 770 4378 
Q 984 4497 1229 4565 
Q 1475 4634 1753 4634 
Q 2175 4634 2481 4487 
Q 2788 4341 2955 4069 
Q 3122 3797 3122 3422 
Q 3122 3059 2978 2748 
Q 2834 2438 2575 2133 
Q 2316 1828 1969 1488 
L 975 497 
L 975 475 
L 3309 475 
L 3309 0 
z
" transform="scale(0.015625)"/>
       </defs>
       <use xlink:href="#OpenSans-Regular-31"/>
       <use xlink:href="#OpenSans-Regular-2e" transform="translate(57.177734 0)"/>
       <use xlink:href="#OpenSans-Regular-32" transform="translate(83.447266 0)"/>
      </g>
     </g>
    </g>
    <g id="xtick_6">
     <g id="line2d_7">
      <g>
       <use xlink:href="#m39108e66b1" x="442.699894" y="305.770984" style="stroke: #000000; stroke-width: 0.8"/>
      </g>
     </g>
     <g id="text_6">
      <!-- 1.4 -->
      <g transform="translate(433.560284 322.648953) scale(0.13 -0.13)">
       <use xlink:href="#OpenSans-Regular-31"/>
       <use xlink:href="#OpenSans-Regular-2e" transform="translate(57.177734 0)"/>
       <use xlink:href="#OpenSans-Regular-34" transform="translate(83.447266 0)"/>
      </g>
     </g>
    </g>
    <g id="xtick_7">
     <g id="line2d_8">
      <g>
       <use xlink:href="#m39108e66b1" x="517.411094" y="305.770984" style="stroke: #000000; stroke-width: 0.8"/>
      </g>
     </g>
     <g id="text_7">
      <!-- 1.6 -->
      <g transform="translate(508.271484 322.648953) scale(0.13 -0.13)">
       <use xlink:href="#OpenSans-Regular-31"/>
       <use xlink:href="#OpenSans-Regular-2e" transform="translate(57.177734 0)"/>
       <use xlink:href="#OpenSans-Regular-36" transform="translate(83.447266 0)"/>
      </g>
     </g>
    </g>
    <g id="text_8">
     <!-- Mach number  $M^*$ -->
     <g transform="translate(223.388594 340.396609) scale(0.14 -0.14)">
      <defs>
       <path id="OpenSans-Regular-4d" d="M 2634 0 
L 1100 4044 
L 1075 4044 
Q 1088 3916 1097 3731 
Q 1106 3547 1112 3330 
Q 1119 3113 1119 2888 
L 1119 0 
L 625 0 
L 625 4569 
L 1413 4569 
L 2859 769 
L 2881 769 
L 4350 4569 
L 5131 4569 
L 5131 0 
L 4606 0 
L 4606 2925 
Q 4606 3128 4612 3333 
Q 4619 3538 4628 3720 
Q 4638 3903 4647 4038 
L 4622 4038 
L 3069 0 
L 2634 0 
z
" transform="scale(0.015625)"/>
       <path id="OpenSans-Regular-61" d="M 1828 3481 
Q 2441 3481 2737 3206 
Q 3034 2931 3034 2328 
L 3034 0 
L 2656 0 
L 2556 506 
L 2531 506 
Q 2388 319 2231 192 
Q 2075 66 1870 1 
Q 1666 -63 1369 -63 
Q 1056 -63 814 46 
Q 572 156 433 378 
Q 294 600 294 941 
Q 294 1453 700 1728 
Q 1106 2003 1938 2028 
L 2528 2053 
L 2528 2263 
Q 2528 2706 2337 2884 
Q 2147 3063 1800 3063 
Q 1531 3063 1287 2984 
Q 1044 2906 825 2800 
L 666 3194 
Q 897 3313 1197 3397 
Q 1497 3481 1828 3481 
z
M 2522 1688 
L 2000 1666 
Q 1359 1641 1096 1456 
Q 834 1272 834 934 
Q 834 641 1012 500 
Q 1191 359 1484 359 
Q 1941 359 2231 612 
Q 2522 866 2522 1372 
L 2522 1688 
z
" transform="scale(0.015625)"/>
       <path id="OpenSans-Regular-63" d="M 1919 -63 
Q 1456 -63 1103 128 
Q 750 319 553 709 
Q 356 1100 356 1694 
Q 356 2316 564 2711 
Q 772 3106 1137 3297 
Q 1503 3488 1969 3488 
Q 2225 3488 2464 3436 
Q 2703 3384 2856 3306 
L 2700 2872 
Q 2544 2934 2339 2984 
Q 2134 3034 1956 3034 
Q 1600 3034 1364 2881 
Q 1128 2728 1011 2431 
Q 894 2134 894 1700 
Q 894 1284 1008 990 
Q 1122 697 1348 542 
Q 1575 388 1916 388 
Q 2188 388 2406 445 
Q 2625 503 2803 581 
L 2803 119 
Q 2631 31 2420 -16 
Q 2209 -63 1919 -63 
z
" transform="scale(0.015625)"/>
       <path id="OpenSans-Regular-68" d="M 1066 4863 
L 1066 3409 
Q 1066 3284 1059 3157 
Q 1053 3031 1038 2925 
L 1072 2925 
Q 1178 3106 1342 3229 
Q 1506 3353 1715 3417 
Q 1925 3481 2159 3481 
Q 2572 3481 2848 3350 
Q 3125 3219 3264 2944 
Q 3403 2669 3403 2231 
L 3403 0 
L 2891 0 
L 2891 2197 
Q 2891 2625 2695 2837 
Q 2500 3050 2097 3050 
Q 1716 3050 1489 2904 
Q 1263 2759 1164 2478 
Q 1066 2197 1066 1791 
L 1066 0 
L 547 0 
L 547 4863 
L 1066 4863 
z
" transform="scale(0.015625)"/>
       <path id="OpenSans-Regular-20" transform="scale(0.015625)"/>
       <path id="OpenSans-Regular-6e" d="M 2169 3488 
Q 2778 3488 3090 3189 
Q 3403 2891 3403 2231 
L 3403 0 
L 2891 0 
L 2891 2197 
Q 2891 2625 2695 2837 
Q 2500 3050 2097 3050 
Q 1528 3050 1297 2728 
Q 1066 2406 1066 1794 
L 1066 0 
L 547 0 
L 547 3425 
L 966 3425 
L 1044 2931 
L 1072 2931 
Q 1181 3113 1350 3236 
Q 1519 3359 1728 3423 
Q 1938 3488 2169 3488 
z
" transform="scale(0.015625)"/>
       <path id="OpenSans-Regular-75" d="M 3375 3425 
L 3375 0 
L 2950 0 
L 2875 481 
L 2847 481 
Q 2741 303 2572 181 
Q 2403 59 2192 -2 
Q 1981 -63 1744 -63 
Q 1338 -63 1063 68 
Q 788 200 648 475 
Q 509 750 509 1181 
L 509 3425 
L 1034 3425 
L 1034 1219 
Q 1034 791 1228 580 
Q 1422 369 1819 369 
Q 2200 369 2426 512 
Q 2653 656 2753 936 
Q 2853 1216 2853 1622 
L 2853 3425 
L 3375 3425 
z
" transform="scale(0.015625)"/>
       <path id="OpenSans-Regular-6d" d="M 4266 3488 
Q 4831 3488 5118 3192 
Q 5406 2897 5406 2244 
L 5406 0 
L 4894 0 
L 4894 2219 
Q 4894 2634 4714 2842 
Q 4534 3050 4181 3050 
Q 3684 3050 3459 2762 
Q 3234 2475 3234 1916 
L 3234 0 
L 2719 0 
L 2719 2219 
Q 2719 2497 2639 2681 
Q 2559 2866 2401 2958 
Q 2244 3050 2003 3050 
Q 1663 3050 1456 2909 
Q 1250 2769 1158 2492 
Q 1066 2216 1066 1813 
L 1066 0 
L 547 0 
L 547 3425 
L 966 3425 
L 1044 2941 
L 1072 2941 
Q 1175 3119 1331 3241 
Q 1488 3363 1681 3425 
Q 1875 3488 2094 3488 
Q 2484 3488 2748 3342 
Q 3013 3197 3131 2900 
L 3159 2900 
Q 3328 3197 3622 3342 
Q 3916 3488 4266 3488 
z
" transform="scale(0.015625)"/>
       <path id="OpenSans-Regular-62" d="M 1066 4863 
L 1066 3647 
Q 1066 3438 1055 3241 
Q 1044 3044 1038 2934 
L 1066 2934 
Q 1206 3166 1472 3325 
Q 1738 3484 2150 3484 
Q 2794 3484 3176 3039 
Q 3559 2594 3559 1716 
Q 3559 1138 3384 741 
Q 3209 344 2890 140 
Q 2572 -63 2138 -63 
Q 1731 -63 1470 89 
Q 1209 241 1069 459 
L 1028 459 
L 922 0 
L 547 0 
L 547 4863 
L 1066 4863 
z
M 2066 3050 
Q 1694 3050 1475 2904 
Q 1256 2759 1161 2467 
Q 1066 2175 1066 1728 
L 1066 1700 
Q 1066 1053 1281 711 
Q 1497 369 2066 369 
Q 2544 369 2783 719 
Q 3022 1069 3022 1719 
Q 3022 2381 2786 2715 
Q 2550 3050 2066 3050 
z
" transform="scale(0.015625)"/>
       <path id="OpenSans-Regular-65" d="M 1866 3488 
Q 2303 3488 2615 3294 
Q 2928 3100 3093 2751 
Q 3259 2403 3259 1938 
L 3259 1616 
L 894 1616 
Q 903 1013 1193 697 
Q 1484 381 2013 381 
Q 2338 381 2588 440 
Q 2838 500 3106 616 
L 3106 159 
Q 2847 44 2592 -9 
Q 2338 -63 1991 -63 
Q 1497 -63 1130 139 
Q 763 341 559 731 
Q 356 1122 356 1688 
Q 356 2241 542 2645 
Q 728 3050 1067 3269 
Q 1406 3488 1866 3488 
z
M 1859 3063 
Q 1444 3063 1197 2791 
Q 950 2519 903 2031 
L 2716 2031 
Q 2713 2338 2620 2570 
Q 2528 2803 2340 2933 
Q 2153 3063 1859 3063 
z
" transform="scale(0.015625)"/>
       <path id="OpenSans-Regular-72" d="M 2103 3488 
Q 2206 3488 2318 3477 
Q 2431 3466 2519 3447 
L 2453 2966 
Q 2369 2988 2266 3000 
Q 2163 3013 2072 3013 
Q 1866 3013 1683 2930 
Q 1500 2847 1362 2692 
Q 1225 2538 1147 2320 
Q 1069 2103 1069 1838 
L 1069 0 
L 547 0 
L 547 3425 
L 978 3425 
L 1034 2794 
L 1056 2794 
Q 1163 2984 1313 3142 
Q 1463 3300 1661 3394 
Q 1859 3488 2103 3488 
z
" transform="scale(0.015625)"/>
       <path id="DejaVuSans-Oblique-4d" d="M 1081 4666 
L 2028 4666 
L 2572 1522 
L 4378 4666 
L 5350 4666 
L 4441 0 
L 3828 0 
L 4622 4091 
L 2791 897 
L 2175 897 
L 1581 4103 
L 788 0 
L 172 0 
L 1081 4666 
z
" transform="scale(0.015625)"/>
       <path id="DejaVuSans-2a" d="M 3009 3897 
L 1888 3291 
L 3009 2681 
L 2828 2375 
L 1778 3009 
L 1778 1831 
L 1422 1831 
L 1422 3009 
L 372 2375 
L 191 2681 
L 1313 3291 
L 191 3897 
L 372 4206 
L 1422 3572 
L 1422 4750 
L 1778 4750 
L 1778 3572 
L 2828 4206 
L 3009 3897 
z
" transform="scale(0.015625)"/>
      </defs>
      <use xlink:href="#OpenSans-Regular-4d" transform="translate(0 0.765625)"/>
      <use xlink:href="#OpenSans-Regular-61" transform="translate(89.941406 0.765625)"/>
      <use xlink:href="#OpenSans-Regular-63" transform="translate(145.507812 0.765625)"/>
      <use xlink:href="#OpenSans-Regular-68" transform="translate(193.408203 0.765625)"/>
      <use xlink:href="#OpenSans-Regular-20" transform="translate(254.736328 0.765625)"/>
      <use xlink:href="#OpenSans-Regular-6e" transform="translate(280.712891 0.765625)"/>
      <use xlink:href="#OpenSans-Regular-75" transform="translate(342.041016 0.765625)"/>
      <use xlink:href="#OpenSans-Regular-6d" transform="translate(403.369141 0.765625)"/>
      <use xlink:href="#OpenSans-Regular-62" transform="translate(495.947266 0.765625)"/>
      <use xlink:href="#OpenSans-Regular-65" transform="translate(557.128906 0.765625)"/>
      <use xlink:href="#OpenSans-Regular-72" transform="translate(613.28125 0.765625)"/>
      <use xlink:href="#OpenSans-Regular-20" transform="translate(654.150391 0.765625)"/>
      <use xlink:href="#OpenSans-Regular-20" transform="translate(680.126953 0.765625)"/>
      <use xlink:href="#DejaVuSans-Oblique-4d" transform="translate(706.103516 0.765625)"/>
      <use xlink:href="#DejaVuSans-2a" transform="translate(813.037279 39.046875) scale(0.7)"/>
     </g>
    </g>
   </g>
   <g id="matplotlib.axis_2">
    <g id="ytick_1">
     <g id="line2d_9">
      <defs>
       <path id="md27f14fda9" d="M 0 0 
L -3.5 0 
" style="stroke: #000000; stroke-width: 0.8"/>
      </defs>
      <g>
       <use xlink:href="#md27f14fda9" x="50.466094" y="291.788508" style="stroke: #000000; stroke-width: 0.8"/>
      </g>
     </g>
     <g id="text_9">
      <!-- 1.0 -->
      <g transform="translate(25.186875 296.727493) scale(0.13 -0.13)">
       <use xlink:href="#OpenSans-Regular-31"/>
       <use xlink:href="#OpenSans-Regular-2e" transform="translate(57.177734 0)"/>
       <use xlink:href="#OpenSans-Regular-30" transform="translate(83.447266 0)"/>
      </g>
     </g>
    </g>
    <g id="ytick_2">
     <g id="line2d_10">
      <g>
       <use xlink:href="#md27f14fda9" x="50.466094" y="245.180254" style="stroke: #000000; stroke-width: 0.8"/>
      </g>
     </g>
     <g id="text_10">
      <!-- 1.1 -->
      <g transform="translate(25.186875 250.119239) scale(0.13 -0.13)">
       <use xlink:href="#OpenSans-Regular-31"/>
       <use xlink:href="#OpenSans-Regular-2e" transform="translate(57.177734 0)"/>
       <use xlink:href="#OpenSans-Regular-31" transform="translate(83.447266 0)"/>
      </g>
     </g>
    </g>
    <g id="ytick_3">
     <g id="line2d_11">
      <g>
       <use xlink:href="#md27f14fda9" x="50.466094" y="198.572" style="stroke: #000000; stroke-width: 0.8"/>
      </g>
     </g>
     <g id="text_11">
      <!-- 1.2 -->
      <g transform="translate(25.186875 203.510985) scale(0.13 -0.13)">
       <use xlink:href="#OpenSans-Regular-31"/>
       <use xlink:href="#OpenSans-Regular-2e" transform="translate(57.177734 0)"/>
       <use xlink:href="#OpenSans-Regular-32" transform="translate(83.447266 0)"/>
      </g>
     </g>
    </g>
    <g id="ytick_4">
     <g id="line2d_12">
      <g>
       <use xlink:href="#md27f14fda9" x="50.466094" y="151.963746" style="stroke: #000000; stroke-width: 0.8"/>
      </g>
     </g>
     <g id="text_12">
      <!-- 1.3 -->
      <g transform="translate(25.186875 156.902731) scale(0.13 -0.13)">
       <defs>
        <path id="OpenSans-Regular-33" d="M 3141 3503 
Q 3141 3197 3022 2972 
Q 2903 2747 2690 2605 
Q 2478 2463 2191 2406 
L 2191 2381 
Q 2734 2313 3007 2031 
Q 3281 1750 3281 1294 
Q 3281 897 3095 590 
Q 2909 284 2526 110 
Q 2144 -63 1547 -63 
Q 1184 -63 876 -5 
Q 569 53 288 188 
L 288 675 
Q 572 534 906 454 
Q 1241 375 1553 375 
Q 2178 375 2456 623 
Q 2734 872 2734 1303 
Q 2734 1600 2579 1783 
Q 2425 1966 2136 2052 
Q 1847 2138 1441 2138 
L 984 2138 
L 984 2581 
L 1444 2581 
Q 1816 2581 2075 2690 
Q 2334 2800 2470 2998 
Q 2606 3197 2606 3469 
Q 2606 3816 2375 4005 
Q 2144 4194 1747 4194 
Q 1503 4194 1303 4144 
Q 1103 4094 928 4006 
Q 753 3919 578 3803 
L 316 4159 
Q 566 4353 925 4493 
Q 1284 4634 1741 4634 
Q 2441 4634 2791 4315 
Q 3141 3997 3141 3503 
z
" transform="scale(0.015625)"/>
       </defs>
       <use xlink:href="#OpenSans-Regular-31"/>
       <use xlink:href="#OpenSans-Regular-2e" transform="translate(57.177734 0)"/>
       <use xlink:href="#OpenSans-Regular-33" transform="translate(83.447266 0)"/>
      </g>
     </g>
    </g>
    <g id="ytick_5">
     <g id="line2d_13">
      <g>
       <use xlink:href="#md27f14fda9" x="50.466094" y="105.355492" style="stroke: #000000; stroke-width: 0.8"/>
      </g>
     </g>
     <g id="text_13">
      <!-- 1.4 -->
      <g transform="translate(25.186875 110.294477) scale(0.13 -0.13)">
       <use xlink:href="#OpenSans-Regular-31"/>
       <use xlink:href="#OpenSans-Regular-2e" transform="translate(57.177734 0)"/>
       <use xlink:href="#OpenSans-Regular-34" transform="translate(83.447266 0)"/>
      </g>
     </g>
    </g>
    <g id="ytick_6">
     <g id="line2d_14">
      <g>
       <use xlink:href="#md27f14fda9" x="50.466094" y="58.747238" style="stroke: #000000; stroke-width: 0.8"/>
      </g>
     </g>
     <g id="text_14">
      <!-- 1.5 -->
      <g transform="translate(25.186875 63.686223) scale(0.13 -0.13)">
       <defs>
        <path id="OpenSans-Regular-35" d="M 1759 2794 
Q 2225 2794 2569 2636 
Q 2913 2478 3102 2178 
Q 3291 1878 3291 1450 
Q 3291 981 3087 642 
Q 2884 303 2503 120 
Q 2122 -63 1591 -63 
Q 1234 -63 928 0 
Q 622 63 413 188 
L 413 681 
Q 641 544 966 462 
Q 1291 381 1597 381 
Q 1944 381 2205 492 
Q 2466 603 2611 829 
Q 2756 1056 2756 1400 
Q 2756 1856 2476 2104 
Q 2197 2353 1594 2353 
Q 1400 2353 1169 2322 
Q 938 2291 788 2253 
L 525 2425 
L 700 4569 
L 2972 4569 
L 2972 4094 
L 1144 4094 
L 1028 2716 
Q 1147 2741 1334 2767 
Q 1522 2794 1759 2794 
z
" transform="scale(0.015625)"/>
       </defs>
       <use xlink:href="#OpenSans-Regular-31"/>
       <use xlink:href="#OpenSans-Regular-2e" transform="translate(57.177734 0)"/>
       <use xlink:href="#OpenSans-Regular-35" transform="translate(83.447266 0)"/>
      </g>
     </g>
    </g>
    <g id="ytick_7">
     <g id="line2d_15">
      <g>
       <use xlink:href="#md27f14fda9" x="50.466094" y="12.138984" style="stroke: #000000; stroke-width: 0.8"/>
      </g>
     </g>
     <g id="text_15">
      <!-- 1.6 -->
      <g transform="translate(25.186875 17.077969) scale(0.13 -0.13)">
       <use xlink:href="#OpenSans-Regular-31"/>
       <use xlink:href="#OpenSans-Regular-2e" transform="translate(57.177734 0)"/>
       <use xlink:href="#OpenSans-Regular-36" transform="translate(83.447266 0)"/>
      </g>
     </g>
    </g>
    <g id="text_16">
     <!-- Area ratio  $A*$ -->
     <g transform="translate(17.837812 205.784984) rotate(-90) scale(0.14 -0.14)">
      <defs>
       <path id="OpenSans-Regular-41" d="M 3491 0 
L 2928 1450 
L 1097 1450 
L 538 0 
L 0 0 
L 1788 4588 
L 2266 4588 
L 4041 0 
L 3491 0 
z
M 2769 1922 
L 2234 3363 
Q 2216 3419 2173 3547 
Q 2131 3675 2087 3812 
Q 2044 3950 2016 4034 
Q 1984 3906 1948 3779 
Q 1913 3653 1878 3545 
Q 1844 3438 1819 3363 
L 1275 1922 
L 2769 1922 
z
" transform="scale(0.015625)"/>
       <path id="OpenSans-Regular-74" d="M 1653 363 
Q 1781 363 1915 384 
Q 2050 406 2134 438 
L 2134 34 
Q 2044 -6 1883 -34 
Q 1722 -63 1569 -63 
Q 1297 -63 1075 32 
Q 853 128 720 356 
Q 588 584 588 988 
L 588 3019 
L 100 3019 
L 100 3272 
L 591 3475 
L 797 4219 
L 1109 4219 
L 1109 3425 
L 2113 3425 
L 2113 3019 
L 1109 3019 
L 1109 1003 
Q 1109 681 1257 522 
Q 1406 363 1653 363 
z
" transform="scale(0.015625)"/>
       <path id="OpenSans-Regular-69" d="M 1066 3425 
L 1066 0 
L 547 0 
L 547 3425 
L 1066 3425 
z
M 813 4706 
Q 941 4706 1033 4623 
Q 1125 4541 1125 4366 
Q 1125 4194 1033 4109 
Q 941 4025 813 4025 
Q 678 4025 589 4109 
Q 500 4194 500 4366 
Q 500 4541 589 4623 
Q 678 4706 813 4706 
z
" transform="scale(0.015625)"/>
       <path id="OpenSans-Regular-6f" d="M 3500 1719 
Q 3500 1297 3390 965 
Q 3281 634 3075 406 
Q 2869 178 2576 57 
Q 2284 -63 1916 -63 
Q 1572 -63 1286 57 
Q 1000 178 792 406 
Q 584 634 470 965 
Q 356 1297 356 1719 
Q 356 2281 547 2676 
Q 738 3072 1092 3280 
Q 1447 3488 1938 3488 
Q 2406 3488 2757 3278 
Q 3109 3069 3304 2673 
Q 3500 2278 3500 1719 
z
M 894 1719 
Q 894 1306 1003 1003 
Q 1113 700 1341 534 
Q 1569 369 1928 369 
Q 2284 369 2514 534 
Q 2744 700 2853 1003 
Q 2963 1306 2963 1719 
Q 2963 2128 2853 2426 
Q 2744 2725 2516 2887 
Q 2288 3050 1925 3050 
Q 1391 3050 1142 2697 
Q 894 2344 894 1719 
z
" transform="scale(0.015625)"/>
       <path id="DejaVuSans-Oblique-41" d="M 2356 4666 
L 3072 4666 
L 3938 0 
L 3278 0 
L 3084 1197 
L 984 1197 
L 325 0 
L -341 0 
L 2356 4666 
z
M 2584 4044 
L 1275 1722 
L 2988 1722 
L 2584 4044 
z
" transform="scale(0.015625)"/>
      </defs>
      <use xlink:href="#OpenSans-Regular-41" transform="translate(0 0.78125)"/>
      <use xlink:href="#OpenSans-Regular-72" transform="translate(63.232422 0.78125)"/>
      <use xlink:href="#OpenSans-Regular-65" transform="translate(104.101562 0.78125)"/>
      <use xlink:href="#OpenSans-Regular-61" transform="translate(160.253906 0.78125)"/>
      <use xlink:href="#OpenSans-Regular-20" transform="translate(215.820312 0.78125)"/>
      <use xlink:href="#OpenSans-Regular-72" transform="translate(241.796875 0.78125)"/>
      <use xlink:href="#OpenSans-Regular-61" transform="translate(282.666016 0.78125)"/>
      <use xlink:href="#OpenSans-Regular-74" transform="translate(338.232422 0.78125)"/>
      <use xlink:href="#OpenSans-Regular-69" transform="translate(373.876953 0.78125)"/>
      <use xlink:href="#OpenSans-Regular-6f" transform="translate(399.121094 0.78125)"/>
      <use xlink:href="#OpenSans-Regular-20" transform="translate(459.277344 0.78125)"/>
      <use xlink:href="#OpenSans-Regular-20" transform="translate(485.253906 0.78125)"/>
      <use xlink:href="#DejaVuSans-Oblique-41" transform="translate(511.230469 0.78125)"/>
      <use xlink:href="#DejaVuSans-2a" transform="translate(599.121094 0.78125)"/>
     </g>
    </g>
   </g>
   <g id="line2d_16">
    <path d="M 73.946771 35.443111 
L 77.964276 50.10278 
L 81.956723 63.847406 
L 86.063279 77.18968 
L 90.133642 89.674391 
L 94.314762 101.784976 
L 98.447778 113.093423 
L 102.687499 124.054944 
L 107.035811 134.66954 
L 111.320984 144.548714 
L 115.709801 154.107136 
L 120.021959 162.981458 
L 124.432262 171.560174 
L 128.941891 179.843284 
L 133.357845 187.503878 
L 137.866928 194.892988 
L 142.469959 202.010612 
L 147.167674 208.856752 
L 151.750333 215.151197 
L 156.420695 221.197252 
L 161.179159 226.994916 
L 166.026039 232.544189 
L 170.961553 237.845072 
L 175.755522 242.673294 
L 180.630388 247.275193 
L 185.586088 251.650769 
L 190.622471 255.800023 
L 195.739296 259.722953 
L 200.936232 263.419561 
L 206.21285 266.889845 
L 211.311806 269.984464 
L 216.482031 272.873802 
L 221.722916 275.557858 
L 227.033767 278.036633 
L 232.413813 280.310126 
L 237.862205 282.378338 
L 243.37801 284.241268 
L 248.960224 285.898916 
L 254.60776 287.351283 
L 260.31946 288.598369 
L 266.094092 289.640173 
L 271.930353 290.476695 
L 278.123252 291.134109 
L 284.380919 291.5652 
L 290.701611 291.769969 
L 297.083516 291.748414 
L 303.524752 291.500537 
L 310.023378 291.026336 
L 316.577391 290.325813 
L 323.18474 289.398967 
L 329.843325 288.245798 
L 336.551005 286.866306 
L 343.628383 285.178378 
L 350.754717 283.24206 
L 357.927439 281.057351 
L 365.143961 278.624252 
L 372.401679 275.942761 
L 379.697984 273.01288 
L 387.030264 269.834609 
L 394.395914 266.407947 
L 402.129231 262.559944 
L 409.893245 258.440457 
L 417.685046 254.049484 
L 425.501757 249.387027 
L 433.340547 244.453085 
L 441.198633 239.247658 
L 449.073284 233.770747 
L 456.96183 228.02235 
L 457.305085 227.766261 
L 189.842157 227.509659 
L 185.081299 223.334233 
L 180.195849 218.753888 
L 175.470933 214.025228 
L 170.626822 208.856752 
L 165.932051 203.521997 
L 161.125511 197.710477 
L 156.460751 191.71369 
L 151.928083 185.531636 
L 147.29051 178.824061 
L 142.781932 171.911205 
L 138.178981 164.431772 
L 133.703239 156.726016 
L 129.348424 148.793937 
L 124.909893 140.241394 
L 120.592291 131.440461 
L 116.202196 121.973903 
L 111.933427 112.235859 
L 107.60324 101.784976 
L 103.394978 91.038487 
L 99.1361 79.52989 
L 94.999786 67.700541 
L 90.823268 55.057763 
L 86.769857 42.06806 
L 84.78794 35.443111 
L 84.78794 35.443111 
" clip-path="url(#p3a6240b524)" style="fill: none; stroke: #2ca02c; stroke-opacity: 0.45; stroke-width: 6; stroke-linecap: square"/>
   </g>
   <g id="patch_3">
    <path d="M 50.466094 305.770984 
L 50.466094 12.138984 
" style="fill: none; stroke: #000000; stroke-width: 0.8; stroke-linejoin: miter; stroke-linecap: square"/>
   </g>
   <g id="patch_4">
    <path d="M 517.411094 305.770984 
L 517.411094 12.138984 
" style="fill: none; stroke: #000000; stroke-width: 0.8; stroke-linejoin: miter; stroke-linecap: square"/>
   </g>
   <g id="patch_5">
    <path d="M 50.466094 305.770984 
L 517.411094 305.770984 
" style="fill: none; stroke: #000000; stroke-width: 0.8; stroke-linejoin: miter; stroke-linecap: square"/>
   </g>
   <g id="patch_6">
    <path d="M 50.466094 12.138984 
L 517.411094 12.138984 
" style="fill: none; stroke: #000000; stroke-width: 0.8; stroke-linejoin: miter; stroke-linecap: square"/>
   </g>
   <g id="line2d_17">
    <path d="M 73.930426 35.443111 
L 77.831583 49.604459 
L 81.855279 63.363455 
L 85.853181 76.250004 
L 89.969069 88.762427 
L 94.045913 100.45783 
L 98.072827 111.376243 
L 102.206472 121.973903 
L 106.449441 132.25081 
L 110.804139 142.206965 
L 115.092329 151.46311 
L 119.488909 160.42365 
L 123.996839 169.088584 
L 128.424902 177.115092 
L 132.961823 184.870116 
L 137.406719 192.033929 
L 141.958179 198.949351 
L 146.405569 205.318724 
L 150.957117 211.461774 
L 155.616633 217.378502 
L 160.388033 223.068906 
L 165.040578 228.277926 
L 169.803028 233.281663 
L 174.679344 238.08012 
L 179.674848 242.673294 
L 184.534754 246.846668 
L 189.51082 250.834775 
L 194.607833 254.637616 
L 199.830625 258.25519 
L 205.184629 261.687497 
L 210.382305 264.76826 
L 216.007483 267.839785 
L 221.47277 270.578755 
L 227.076172 273.151446 
L 233.146974 275.686673 
L 239.051229 277.91757 
L 245.110476 279.982189 
L 251.680519 281.981118 
L 258.435857 283.794781 
L 265.382079 285.423176 
L 272.525174 286.866306 
L 279.869506 288.124168 
L 287.41826 289.196764 
L 295.586578 290.125663 
L 303.981404 290.849281 
L 312.596616 291.367617 
L 321.420013 291.680671 
L 330.885239 291.788444 
L 340.519195 291.669894 
L 350.2639 291.325021 
L 360.036304 290.753825 
L 369.26164 289.999415 
L 378.268194 289.039724 
L 386.45448 287.937875 
L 393.30968 286.79497 
L 398.846752 285.663356 
L 403.455212 284.503002 
L 406.877 283.428353 
L 409.509827 282.378338 
L 411.425432 281.369892 
L 412.594157 280.526185 
L 413.329859 279.760998 
L 413.779225 278.970664 
L 413.925021 278.27322 
L 413.839254 277.557301 
L 413.513284 276.822906 
L 412.939141 276.070036 
L 411.947028 275.168337 
L 410.598975 274.241491 
L 408.615192 273.151446 
L 405.812078 271.885885 
L 401.988705 270.430952 
L 396.936981 268.77125 
L 390.453929 266.889845 
L 381.702496 264.601469 
L 370.319081 261.863013 
L 351.916414 257.696311 
L 313.122398 248.968766 
L 296.152215 244.892901 
L 282.19451 241.316896 
L 269.550169 237.845072 
L 258.229366 234.500523 
L 248.186078 231.304802 
L 238.625821 228.02235 
L 230.243864 224.915414 
L 222.291412 221.734576 
L 214.765325 218.479837 
L 207.656408 215.151197 
L 200.951702 211.748655 
L 195.146484 208.564739 
L 189.651405 205.318724 
L 184.450901 202.010612 
L 179.093558 198.33094 
L 174.044215 194.577367 
L 169.280764 190.749893 
L 164.781028 186.848517 
L 160.523965 182.87324 
L 156.162743 178.483294 
L 152.039096 174.006616 
L 148.130579 169.443208 
L 144.138901 164.431772 
L 140.349974 159.319748 
L 136.492691 153.730958 
L 132.822373 148.026697 
L 129.091759 141.814877 
L 125.530899 135.471678 
L 121.914041 128.588074 
L 118.251383 121.137893 
L 114.551874 113.093423 
L 111.00542 104.863686 
L 107.421515 96.000655 
L 103.807028 86.473538 
L 100.168617 76.250004 
L 96.512649 65.29618 
L 92.994918 54.070872 
L 89.460387 42.06806 
L 87.600079 35.443111 
L 87.600079 35.443111 
" clip-path="url(#p3a6240b524)" style="fill: none; stroke-dasharray: 12.8,3.2,2,3.2; stroke-dashoffset: 0; stroke: #1f77b4; stroke-width: 2"/>
   </g>
   <g id="line2d_18">
    <path d="M 73.836286 35.443111 
L 77.992953 50.600588 
L 82.125162 64.813769 
L 86.225975 78.127304 
L 90.440522 91.038487 
L 94.615525 103.107502 
L 98.902769 114.802392 
L 103.139659 125.71054 
L 107.485262 136.271762 
L 111.767841 146.099616 
L 115.976811 155.232592 
L 120.464501 164.431772 
L 124.872414 172.96122 
L 129.380144 181.195063 
L 133.793824 188.808442 
L 138.300641 196.150337 
L 142.901776 203.220747 
L 147.598519 210.019672 
L 152.181062 216.268955 
L 156.852979 222.269848 
L 161.614849 228.02235 
L 166.467964 233.526462 
L 171.185949 238.548675 
L 175.98832 243.344565 
L 180.875101 247.914132 
L 185.846514 252.257376 
L 190.902825 256.374298 
L 196.044303 260.264896 
L 201.018588 263.759815 
L 206.323474 267.208545 
L 211.711232 270.430952 
L 216.918327 273.289497 
L 222.197384 275.942761 
L 227.547981 278.390744 
L 232.968114 280.633445 
L 238.45629 282.670864 
L 244.011108 284.503002 
L 249.630274 286.129858 
L 255.31185 287.551433 
L 261.053543 288.767726 
L 266.854575 289.778738 
L 272.712095 290.584468 
L 278.922213 291.20955 
L 285.191492 291.608309 
L 291.517615 291.780746 
L 297.900337 291.72686 
L 304.336586 291.44665 
L 310.826228 290.940118 
L 317.367749 290.207263 
L 323.959947 289.248085 
L 330.602331 288.062584 
L 337.293834 286.65076 
L 344.356238 284.928961 
L 351.47021 282.958771 
L 358.637085 280.740191 
L 365.853879 278.27322 
L 373.121573 275.557858 
L 380.438295 272.594106 
L 388.139101 269.230055 
L 395.892186 265.594519 
L 403.355194 261.863013 
L 411.205803 257.696311 
L 419.447264 253.059001 
L 427.391656 248.337525 
L 435.378575 243.344565 
L 443.406241 238.08012 
L 451.821908 232.297338 
L 458.157784 227.766261 
L 189.490447 227.509659 
L 184.490556 223.068906 
L 179.35607 218.205273 
L 174.376976 213.175362 
L 169.544969 207.979173 
L 164.852523 202.616706 
L 160.042514 196.775933 
L 155.371888 190.749893 
L 150.833944 184.538586 
L 146.421288 178.142013 
L 141.905565 171.208629 
L 137.515798 164.069963 
L 133.035433 156.35343 
L 128.681225 148.410573 
L 124.446962 140.241394 
L 120.134057 131.440461 
L 115.941853 122.391137 
L 111.682742 112.664898 
L 107.545312 102.667173 
L 103.352631 91.945318 
L 99.115963 80.462381 
L 95.007868 68.658692 
L 91.024406 56.534251 
L 87.161512 44.089057 
L 84.602106 35.443111 
L 84.602106 35.443111 
" clip-path="url(#p3a6240b524)" style="fill: none; stroke: #d62728; stroke-width: 1.8; stroke-linecap: square"/>
   </g>
  </g>
 </g>
 <defs>
  <clipPath id="p3a6240b524">
   <rect x="50.466094" y="12.138984" width="466.945" height="293.632"/>
  </clipPath>
 </defs>
</svg>
